<?xml version="1.0" encoding="UTF-8"?>
<svg width="16px" height="16px" viewBox="0 0 16 16" version="1.1" xmlns="http://www.w3.org/2000/svg" xmlns:xlink="http://www.w3.org/1999/xlink">
  <title>添加</title>
  <g id="1任务执行系统" stroke="none" stroke-width="1" fill="none" fill-rule="evenodd">
    <g id="3策略配置-1权限配置-1产品分类管理" transform="translate(-220.000000, -131.000000)" fill-rule="nonzero">
      <g id="编组-4" transform="translate(17.000000, 130.000000)">
        <g id="加" transform="translate(204.000000, 2.000000)">
          <path
            d="M12.2966621,0 C13.23,0 14,0.77 14,1.70333789 L14,1.70333789 L14,12.2966621 C14,13.23 13.23,14 12.2966621,14 L12.2966621,14 L1.70333789,14 C0.77,14 0,13.23 0,12.2966621 L0,12.2966621 L0,1.70333789 C0,0.77 0.77,0 1.70333789,0 L1.70333789,0 Z"
            id="形状" stroke="#1B62EC"></path>
          <path
            d="M10.3333333,6.33333333 L7.66666667,6.33333333 L7.66666667,3.66666667 C7.66666667,3.28889323 7.37777344,3 7,3 C6.62222656,3 6.33333333,3.28889323 6.33333333,3.66666667 L6.33333333,6.33333333 L3.66666667,6.33333333 C3.28889323,6.33333333 3,6.62222656 3,7 C3,7.37777344 3.28889323,7.66666667 3.66666667,7.66666667 L6.33333333,7.66666667 L6.33333333,10.3333333 C6.33333333,10.7111068 6.62222656,11 7,11 C7.37777344,11 7.66666667,10.7111068 7.66666667,10.3333333 L7.66666667,7.66666667 L10.3333333,7.66666667 C10.7111068,7.66666667 11,7.37777344 11,7 C11,6.62222656 10.7111068,6.33333333 10.3333333,6.33333333 Z"
            id="路径" fill="#1B62EC"></path>
        </g>
      </g>
    </g>
  </g>
</svg>
