<svg width="10" height="10" class="icon" viewBox="0 0 1024 1024" xmlns="http://www.w3.org/2000/svg"><defs><style>@font-face{font-family:feedback-iconfont;src:url(//at.alicdn.com/t/font_1031158_u69w8yhxdu.woff2?t=1630033759944) format(&quot;woff2&quot;),url(//at.alicdn.com/t/font_1031158_u69w8yhxdu.woff?t=1630033759944) format(&quot;woff&quot;),url(//at.alicdn.com/t/font_1031158_u69w8yhxdu.ttf?t=1630033759944) format(&quot;truetype&quot;)}</style></defs><path d="M798.72 170.667l5.547.298a54.613 54.613 0 0 1 48.768 48.726l.298 5.589v573.44l-.298 5.547a54.613 54.613 0 0 1-48.726 48.768l-5.589.298H225.28a54.613 54.613 0 0 1-54.315-49.066l-.298-5.547V225.28a54.613 54.613 0 0 1 49.066-54.315l5.547-.298h573.44zm-13.653 40.96H238.933l-4.053.298a27.307 27.307 0 0 0-22.87 22.528l-.383 4.48v546.134l.298 4.053a27.307 27.307 0 0 0 22.528 22.87l4.48.383h546.134l4.053-.298a27.307 27.307 0 0 0 22.87-22.528l.383-4.48V238.933a27.307 27.307 0 0 0-27.306-27.306zm-273.92 74.24a20.48 20.48 0 0 1 20.48 20.48V491.52H716.8a20.48 20.48 0 0 1 3.67 40.619l-3.67.341H531.627v183.467c-.128.597 0 1.152 0 1.706a20.48 20.48 0 1 1-40.96 0l.085-.853.085-.853h-.17V532.48H307.2c-.555-.128-1.152 0-1.707 0a20.48 20.48 0 0 1-3.669-40.619l3.67-.341.853.085.853.086v-.171h183.467V306.347a20.48 20.48 0 0 1 16.81-20.139z" fill="#1B62EC"/></svg>