<svg width="16" height="16" xmlns="http://www.w3.org/2000/svg">
  <g fill-rule="evenodd">
    <path
      d="M3.4 9.4h3.2v3.2a.4.4 0 0 0 .8 0V9.4h3.2a.4.4 0 0 0 0-.8H7.4V5.4a.4.4 0 0 0-.8 0v3.2H3.4A.4.4 0 0 0 3 9c0 .24.2.4.4.4zM15.536 0H3.464A.465.465 0 0 0 3 .464c0 .279.232.465.464.465h11.607v11.607a.465.465 0 0 0 .929 0V.464A.465.465 0 0 0 15.536 0z" />
    <path
      d="M13.533 2H.467A.468.468 0 0 0 0 2.467v13.066c0 .28.233.467.467.467h13.066a.468.468 0 0 0 .467-.467V2.467A.468.468 0 0 0 13.533 2zM.933 15.067h12.134V2.933H.933v12.134z" />
  </g>
</svg>
