<?xml version="1.0" encoding="UTF-8"?>
<svg width="15px" height="14px" viewBox="0 0 15 14" version="1.1" xmlns="http://www.w3.org/2000/svg" xmlns:xlink="http://www.w3.org/1999/xlink">
  <title>加入管控列表</title>
  <g id="页面-1" stroke="none" stroke-width="1" fill-rule="evenodd">
    <g id="评论详情（原文）" transform="translate(-1832.000000, -510.000000)" fill-rule="nonzero">
      <g id="编组-12" transform="translate(0.000000, 247.000000)">
        <g id="编组-3备份" transform="translate(14.000000, 204.000000)">
          <g id="操作按钮" transform="translate(1794.500000, 11.000000)">
            <g id="编组-19" transform="translate(17.000000, 9.000000)">
              <g id="编组-37" transform="translate(7.000000, 39.000000)">
                <path
                  d="M12.5999997,0 C13.3545244,0 13.9733303,0.597918952 13.9991997,1.352 L14,1.4 L14,5.0666 C14.0004231,5.39137917 13.7423453,5.6575361 13.4177073,5.6671209 C13.0930693,5.67670571 12.8197383,5.42623842 12.8009997,5.102 L12.7999997,5.0666 L12.7999997,1.4 C12.7999864,1.29860503 12.7240983,1.21326321 12.6233997,1.2014 L12.5999997,1.2 L1.39999997,1.2 C1.29860501,1.20001338 1.21326319,1.27590142 1.20139998,1.3766 L1.19999998,1.4 L1.19999998,12.6 C1.20001335,12.701395 1.2759014,12.7867368 1.37659997,12.7986 L1.39999997,12.8 L3.27879993,12.8 C3.60353884,12.799687 3.86959025,13.0577934 3.87911977,13.3823926 C3.88864928,13.7069918 3.63819791,13.9802616 3.31399993,13.999 L3.27879993,14 L1.39999997,14 C0.645475333,14 0.0266694161,13.402081 0.000799999984,12.648 L0,1.4 C0,0.645475346 0.59791894,0.0266694166 1.35199997,0.0008 L12.5999997,0 Z M11.4857183,7.16346233 C11.7212016,7.38550637 11.7381319,7.75430357 11.5239829,7.99698882 L11.4999829,8.02258882 L11.1095829,8.41258881 L11.7755829,8.41258881 C13.2667829,8.41258881 14.4755828,9.62138879 14.4755828,11.1125888 C14.4755828,12.5829887 13.3001829,13.7789887 11.8375829,13.8119887 L11.7755829,13.812589 L8.47558297,13.812589 C8.15084406,13.8129017 7.88479265,13.5547953 7.87526313,13.2301961 C7.86573362,12.9055969 8.11618499,12.6323271 8.44038297,12.6135887 L8.47558297,12.6125887 L11.7755829,12.6125887 C12.5943858,12.6123803 13.2617378,11.9555875 13.2750042,11.1368921 C13.2882706,10.3181967 12.6425492,9.6401264 11.8241829,9.61338879 L11.7755829,9.61258879 L11.1099829,9.61258879 L11.4999829,10.0025888 C11.7243747,10.2272112 11.7349848,10.5879547 11.5239829,10.8253888 L11.4999829,10.8509888 C11.2753353,11.0757053 10.9144463,11.0863171 10.6769829,10.8751888 L10.6513829,10.8511888 L9.23718295,9.43678879 C9.0125912,9.21216635 9.00198109,8.85142282 9.21298295,8.61398881 L9.23698295,8.58838881 L10.6513829,7.17418883 C10.8810799,6.94616428 11.250235,6.9414183 11.4857183,7.16346233 Z M6.79999986,6.39999972 C7.12473877,6.39963492 7.39079018,6.70075889 7.40031969,7.07945779 C7.40984921,7.45815669 7.15939784,7.77697127 6.83519986,7.79883272 L6.79999986,7.79999972 L3.59999993,7.79999972 C3.27526102,7.80036451 3.00920961,7.49924054 2.9996801,7.12054164 C2.99015058,6.74184274 3.24060195,6.42302817 3.56479993,6.40116671 L3.59999993,6.39999972 L6.79999986,6.39999972 Z M10.3999998,3.59999972 C10.7247387,3.59963492 10.9907901,3.90075889 11.0003196,4.27945779 C11.0098491,4.65815669 10.7593978,4.97697127 10.4351998,4.99883272 L10.3999998,4.99999972 L3.59999993,4.99999972 C3.27526102,5.00036451 3.00920961,4.69924054 2.9996801,4.32054164 C2.99015058,3.94184274 3.24060195,3.62302817 3.56479993,3.60116671 L3.59999993,3.59999972 L10.3999998,3.59999972 Z"
                  id="加入管控列表"></path>
              </g>
            </g>
          </g>
        </g>
      </g>
    </g>
  </g>
</svg>
