<svg class="icon" viewBox="0 0 1024 1024" xmlns="http://www.w3.org/2000/svg" width="200" height="200"><defs><style>@font-face{font-family:feedback-iconfont;src:url(//at.alicdn.com/t/font_1031158_u69w8yhxdu.woff2?t=1630033759944) format(&quot;woff2&quot;),url(//at.alicdn.com/t/font_1031158_u69w8yhxdu.woff?t=1630033759944) format(&quot;woff&quot;),url(//at.alicdn.com/t/font_1031158_u69w8yhxdu.ttf?t=1630033759944) format(&quot;truetype&quot;)}</style></defs><path d="M905.842 748.316H118.158A118.329 118.329 0 0 1 0 630.158v-512A118.329 118.329 0 0 1 118.158 0h787.684A118.329 118.329 0 0 1 1024 118.158v512a118.329 118.329 0 0 1-118.158 118.158zM118.158 78.734a39.48 39.48 0 0 0-39.367 39.424v512c0 21.618 17.693 39.367 39.367 39.367h787.684c21.618 0 39.367-17.692 39.367-39.367v-512a39.48 39.48 0 0 0-39.367-39.367H118.158z" fill="#FFF"/><path d="M512 984.633a39.367 39.367 0 0 1-39.367-39.424v-236.26a39.367 39.367 0 1 1 78.734 0v236.26c0 21.788-17.635 39.424-39.367 39.424z" fill="#FFF"/><path d="M708.95 1024h-393.9a39.367 39.367 0 1 1 0-78.791h393.9a39.367 39.367 0 1 1 0 78.791zM236.315 512a39.253 39.253 0 0 1-30.037-64.853l167.367-196.95a39.367 39.367 0 0 1 60.075 50.973L266.354 498.12A39.196 39.196 0 0 1 236.316 512z" fill="#FFF"/><path d="M590.791 472.633a39.538 39.538 0 0 1-25.372-9.273L378.31 305.835a39.538 39.538 0 0 1-4.779-55.524 39.538 39.538 0 0 1 55.524-4.779l187.05 157.583a39.538 39.538 0 0 1 4.836 55.466 39.538 39.538 0 0 1-30.15 14.052z" fill="#FFF"/><path d="M590.791 472.633a39.48 39.48 0 0 1-29.184-65.82L758.5 190.18a39.48 39.48 0 0 1 55.637-2.731 39.48 39.48 0 0 1 2.73 55.637L619.919 459.662a39.083 39.083 0 0 1-29.127 12.914z" fill="#FFF"/></svg>