<svg class="icon" viewBox="0 0 1024 1024" xmlns="http://www.w3.org/2000/svg" width="200" height="200"><defs><style>@font-face{font-family:feedback-iconfont;src:url(//at.alicdn.com/t/font_1031158_u69w8yhxdu.woff2?t=1630033759944) format(&quot;woff2&quot;),url(//at.alicdn.com/t/font_1031158_u69w8yhxdu.woff?t=1630033759944) format(&quot;woff&quot;),url(//at.alicdn.com/t/font_1031158_u69w8yhxdu.ttf?t=1630033759944) format(&quot;truetype&quot;)}</style></defs><path d="M460.59.003a456.298 456.298 0 0 1 456.014 462.272c-2.275 250.592-209.575 454.421-460.337 452.544C201.636 912.885-2.592 705.47.025 451.466 2.699 200.25 207.894-.964 460.59.003zm-3.64 805.762a349.747 349.747 0 0 0 351.965-345.822c2.503-193.306-157.523-353.73-352.136-352.99-192.111.74-348.269 157.636-348.269 349.975a348.61 348.61 0 0 0 348.44 348.837zm479.963 204.284l-79.245-79.245a47.9 47.9 0 0 1 0-67.469l3.47-3.47a47.9 47.9 0 0 1 67.526 0l79.245 79.245a47.9 47.9 0 0 1 0 67.47l-3.413 3.47a47.9 47.9 0 0 1-67.583 0z" fill="#FFF"/></svg>