<svg class="icon" viewBox="0 0 1024 1024" xmlns="http://www.w3.org/2000/svg" width="200" height="200"><defs><style>@font-face{font-family:feedback-iconfont;src:url(//at.alicdn.com/t/font_1031158_u69w8yhxdu.woff2?t=1630033759944) format(&quot;woff2&quot;),url(//at.alicdn.com/t/font_1031158_u69w8yhxdu.woff?t=1630033759944) format(&quot;woff&quot;),url(//at.alicdn.com/t/font_1031158_u69w8yhxdu.ttf?t=1630033759944) format(&quot;truetype&quot;)}</style></defs><path d="M704 256a64 64 0 0 1 64 64v554.667a64 64 0 0 1-64 64H149.333a64 64 0 0 1-64-64V320a64 64 0 0 1 64-64zm-21.333 85.333h-512v512h512v-512zM606.336 457.6a42.667 42.667 0 0 1 8.747 55.765l-3.158 4.352-195.114 234.88a42.667 42.667 0 0 1-61.696 4.182l-3.584-3.798-108.246-127.018a42.667 42.667 0 0 1 61.27-59.179l3.712 3.84 75.306 88.405 162.688-195.84a42.667 42.667 0 0 1 60.075-5.546zm268.16-372.267a64 64 0 0 1 63.744 57.856l.256 6.144v533.035a42.667 42.667 0 0 1-85.035 4.992l-.298-4.992V170.667h-511.83a42.667 42.667 0 0 1-42.368-37.675l-.298-4.992a42.667 42.667 0 0 1 37.674-42.368l4.992-.299h533.163z"/></svg>