<svg width="16" height="16" xmlns="http://www.w3.org/2000/svg" xmlns:xlink="http://www.w3.org/1999/xlink"><defs><path id="a" d="M0 0h16v16.001H0z"/></defs><g fill="none" fill-rule="evenodd"><g><mask id="b" fill="#fff"><use xlink:href="#a"/></mask><path d="M9.433 16.001H1.777a1.78 1.78 0 0 1-1.778-1.778V1.778C-.001.798.797 0 1.777 0h12.445C15.202 0 16 .798 16 1.778V9.46a.592.592 0 1 1-1.185 0V1.778a.594.594 0 0 0-.593-.593H1.777a.594.594 0 0 0-.593.593v12.445c0 .326.267.593.593.593h7.656a.592.592 0 1 1 0 1.185z" fill="#1B62EC" mask="url(#b)"/></g><path d="M11.58 4.743H3.305a.592.592 0 1 1 0-1.185h8.273a.592.592 0 1 1 0 1.185zM5.95 8.593H3.306a.592.592 0 1 1 0-1.185H5.95a.592.592 0 0 1 .002 1.185zm0 3.849H3.306a.592.592 0 1 1 0-1.185H5.95a.592.592 0 0 1 .002 1.185zM10.314 13.451a3.19 3.19 0 0 1-3.185-3.185 3.19 3.19 0 0 1 3.185-3.186 3.19 3.19 0 0 1 3.186 3.186 3.189 3.189 0 0 1-3.186 3.185zm0-5.185a2.001 2.001 0 0 0 0 4 2.001 2.001 0 0 0 0-4z" fill="#1B62EC"/><path d="M13.957 14.779l-2.043-2.043a.593.593 0 0 1 .84-.839l2.04 2.043a.593.593 0 0 1-.837.839z" fill="#1B62EC"/></g></svg>