<?xml version="1.0" encoding="UTF-8"?>
<svg width="10px" height="10px" viewBox="0 0 10 10" version="1.1" xmlns="http://www.w3.org/2000/svg" xmlns:xlink="http://www.w3.org/1999/xlink">
    <title>形状</title>
    <g id="页面-1" stroke="none" stroke-width="1" fill="none" fill-rule="evenodd">
        <g id="导出按钮" transform="translate(-1654.000000, -433.000000)" fill="#FFFFFF" fill-rule="nonzero">
            <g id="编组-2" transform="translate(0.000000, 140.000000)">
                <g id="编组-42" transform="translate(1643.006876, 108.000000)">
                    <g id="编组-36备份" transform="translate(0.000000, 180.000000)">
                        <path d="M19.5301685,6.46295585 C17.5799131,4.51234805 14.4063532,4.51234805 12.4560978,6.46295585 C10.5054665,8.41323472 10.5054665,11.5867711 12.4560978,13.5370265 C14.4063532,15.4876578 17.5799131,15.4876578 19.5301685,13.5370265 C21.4808115,11.5867711 21.4808115,8.41324646 19.5301685,6.46295585 Z M18.9515611,8.696565 L15.5937231,12.2713382 C15.5726839,12.290909 15.550564,12.3039718 15.5342236,12.3134048 C15.516086,12.3253869 15.503399,12.3355482 15.4848855,12.3431604 C15.4424429,12.3612981 15.3974747,12.3703552 15.3503097,12.3703552 C15.3071389,12.3703552 15.2646845,12.3623788 15.2233227,12.3464144 L15.1834175,12.3232137 C15.1620024,12.3119599 15.1388017,12.2999895 15.1166583,12.2803952 L15.1166583,12.2796669 C15.1152134,12.2785862 15.1137567,12.2771413 15.1123236,12.2756846 L15.1010698,12.2648185 L13.195066,10.386726 C13.1290351,10.32214 13.0916908,10.2350816 13.0909481,10.1425726 C13.0905984,10.0493587 13.1257812,9.96191269 13.191072,9.89554111 C13.3216654,9.76349104 13.5505945,9.76239856 13.6826211,9.89263955 L15.3408768,11.5262027 L18.4458331,8.22061618 C18.5717159,8.0867453 18.8031589,8.07948553 18.9366774,8.20500417 C19.0045174,8.26921427 19.0436942,8.35556781 19.0462316,8.44878169 C19.048769,8.54129075 19.0153952,8.62945335 18.9515611,8.696565 Z" id="形状"></path>
                    </g>
                </g>
            </g>
        </g>
    </g>
</svg>