<?xml version="1.0" encoding="UTF-8"?>
<svg width="16px" height="14px" viewBox="0 0 16 14" version="1.1" xmlns="http://www.w3.org/2000/svg" xmlns:xlink="http://www.w3.org/1999/xlink">
  <title>收藏</title>
  <g id="菜单调整" stroke="none" stroke-width="1">
    <g id="1.1菜单布局调整" transform="translate(-1398.000000, -276.000000)">
      <g id="编组-27" transform="translate(287.000000, 256.000000)">
        <g id="编组-25备份-12" transform="translate(0.000000, 5.000000)">
          <g id="编组-87" transform="translate(0.419562, 0.000000)">
            <g id="编组-129" transform="translate(986.234825, 6.000000)">
              <g id="GK列表" transform="translate(111.976862, 0.000000)">
                <g id="编组-15" transform="translate(13.233629, 9.000000)">
                  <path
                    d="M8.02577958,11.2476891 L11.3662594,12.9788775 L10.7349876,9.33563035 C10.6560786,8.92221223 10.8138966,8.48295548 11.1032295,8.19873052 L13.7861345,5.61486728 L10.0511099,5.072256 C9.630262,5.02057874 9.26202014,4.73635378 9.05159621,4.37461293 L7.42081079,1.04142935 L5.76372238,4.34877429 C5.57960145,4.73635378 5.21135958,4.9947401 4.76420874,5.04641737 L1.02918407,5.61486728 L3.71208911,8.19873052 C4.027725,8.48295548 4.15923995,8.92221223 4.08033098,9.33563035 L3.4753622,12.9788775 L6.81584201,11.2476891 C7.18408388,11.0409801 7.65753771,11.0409801 8.02577958,11.2476891 Z M7.28929584,12.1520413 L3.94881603,13.8832296 C3.42275622,14.141616 2.79148444,13.9607455 2.52845453,13.4439729 C2.42324257,13.2372638 2.37063659,13.0047161 2.42324257,12.7980071 L3.05451435,9.15475992 C3.08081734,9.07724402 3.02821136,8.97388949 2.97560537,8.92221223 L0.319003321,6.33834899 C-0.10184453,5.9507695 -0.10184453,5.27896506 0.29270033,4.86554694 C0.450518274,4.71051515 0.660942199,4.60716062 0.897669114,4.55548335 L4.63269378,4.01287207 C4.71160276,4.01287207 4.79051173,3.93535618 4.84311771,3.88367891 L6.50020612,0.576333965 C6.76323603,0.0595613172 7.3945078,-0.147147742 7.92056761,0.111238582 C8.13099154,0.214593112 8.28880948,0.369624906 8.39402144,0.576333965 L10.0248069,3.90951754 C10.0511099,3.98703344 10.1300188,4.03871071 10.2352308,4.03871071 L13.9702555,4.58132199 C14.5489213,4.65883788 14.9434661,5.17561053 14.8645571,5.74406044 C14.8382541,5.97660813 14.7330422,6.18331719 14.5489213,6.33834899 L11.8660162,8.92221223 C11.8134102,8.97388949 11.7871072,9.07724402 11.7871072,9.15475992 L12.418379,12.7980071 C12.523591,13.366457 12.1290461,13.8832296 11.5503803,13.9865842 C11.3136534,14.0124228 11.0769265,13.9865842 10.8928056,13.8832296 L7.55232574,12.1520413 C7.47341677,12.1262026 7.36820481,12.1262026 7.28929584,12.1520413 Z"
                    id="收藏"></path>
                </g>
              </g>
            </g>
          </g>
        </g>
      </g>
    </g>
  </g>
</svg>
