<svg t="1607927626984" class="icon" viewBox="0 0 1024 1024" version="1.1" xmlns="http://www.w3.org/2000/svg" p-id="5694" width="200" height="200">
  <path
    d="M917.897846 23.630769H111.300923a57.659077 57.659077 0 0 0-57.501538 57.659077V920.812308c0 31.822769 25.757538 57.659077 57.501538 57.659077h806.675692a57.659077 57.659077 0 0 0 57.659077-57.659077V81.289846A57.816615 57.816615 0 0 0 917.897846 23.630769z m0.078769 862.916923c0 18.747077-15.202462 33.870769-34.028307 33.87077H145.250462a33.949538 33.949538 0 0 1-33.949539-33.87077v-771.150769c0-18.668308 15.202462-33.870769 33.949539-33.870769h738.697846c18.747077 0 34.028308 15.202462 34.028307 33.870769v771.150769z m-437.956923-694.902154H236.544a34.579692 34.579692 0 0 0-34.500923 34.579693v243.554461c0 19.140923 15.517538 34.579692 34.500923 34.579693h243.633231a34.579692 34.579692 0 0 0 34.500923-34.658462V226.304a34.579692 34.579692 0 0 0-34.500923-34.658462z m-19.692307 234.889847a23.473231 23.473231 0 0 1-23.473231 23.552H279.709538a23.473231 23.473231 0 0 1-23.552-23.552V269.469538c0-12.996923 10.555077-23.473231 23.552-23.47323h157.065847c12.996923 0 23.473231 10.476308 23.47323 23.47323v157.065847h0.157539z m128.393846-136.113231H802.658462a24.654769 24.654769 0 1 0 0-49.467077H588.563692a24.654769 24.654769 0 1 0 0.07877 49.467077zM802.658462 405.661538H588.642462a24.654769 24.654769 0 1 0 0 49.467077h214.094769a24.654769 24.654769 0 1 0 0-49.467077z m0 342.331077H226.461538a24.654769 24.654769 0 1 0 0 49.467077h576.354462a24.654769 24.654769 0 1 0-0.078769-49.467077z m-576.196924-108.701538h576.275693a24.654769 24.654769 0 1 0 0-49.467077H226.461538a24.654769 24.654769 0 1 0 0.07877 49.467077z"
    fill-opacity=".65" p-id="5695"></path>
</svg>
