<?xml version="1.0" encoding="UTF-8"?>
<svg width="16px" height="16px" viewBox="0 0 16 16" version="1.1" xmlns="http://www.w3.org/2000/svg" xmlns:xlink="http://www.w3.org/1999/xlink">
    <title>删除</title>
    <defs>
        <linearGradient x1="0%" y1="100%" x2="100%" y2="0%" id="linearGradient-1">
            <stop stop-color="#3559F2" offset="0%"></stop>
            <stop stop-color="#4162EE" offset="100%"></stop>
        </linearGradient>
    </defs>
    <g id="页面" stroke="none" stroke-width="1" fill="none" fill-rule="evenodd">
        <g id="4任务发起-我的任务" transform="translate(-1786.000000, -606.000000)" fill="#1B62EC">
            <g id="编组-4" transform="translate(1744.000000, 606.000000)">
                <g id="icon-删除" transform="translate(50.000000, 8.000000) scale(-1, 1) translate(-50.000000, -8.000000) translate(42.000000, 0.000000)">
                    <path d="M7.44036303,4.77154494 C7.44036303,4.47310823 7.71785943,4.23276248 8.05175669,4.23276248 C8.38567491,4.23276248 8.66317131,4.47722855 8.66317131,4.77154494 L8.66317131,12.9446309 C8.66317131,13.2430676 8.38567491,13.4834134 8.05175669,13.4834134 C7.71309995,13.4834134 7.44036303,13.2388919 7.44036303,12.9446309 L7.44036303,4.77154494 Z M4.55733584,4.77154494 C4.55733584,4.47310823 4.83015663,4.23276248 5.16875046,4.23276248 C5.50740719,4.23276248 5.78014411,4.47722855 5.78014411,4.77154494 L5.78014411,12.9446309 C5.78014411,13.2430676 5.50264771,13.4834134 5.16875046,13.4834134 C4.83015663,13.4834134 4.55733584,13.2388919 4.55733584,12.9446309 L4.55733584,4.77154494 Z M10.3187356,4.77154494 C10.3187356,4.47310823 10.596211,4.23276248 10.9301292,4.23276248 C11.2687021,4.23276248 11.5415229,4.47722855 11.5415229,4.77154494 L11.5415229,12.9446309 C11.5415229,13.2430676 11.2640265,13.4834134 10.9301292,13.4834134 C10.596211,13.4834134 10.3187356,13.2388919 10.3187356,12.9446309 L10.3187356,4.77154494 Z M15.3886902,2.1231594 L12.1011494,2.1231594 L12.1011494,1.4434177 C12.1011494,0.917051632 11.5650267,0.502617801 10.8783621,0.502617801 L5.22049667,0.502617801 C4.53383199,0.502617801 3.99770937,0.917051632 3.99770937,1.4434177 L3.99770937,2.11898365 L0.611393653,2.11898365 C0.272736922,2.11898365 0,2.35940331 0,2.65784001 C0,2.95620281 0.272820789,3.19662247 0.611393653,3.19662247 L1.90003787,3.19662247 L1.90003787,14.5610707 C1.90003787,15.141278 2.45033409,15.6137289 3.12282518,15.6137289 L12.9853638,15.6137289 C13.6579388,15.6137289 14.2081511,15.141278 14.2081511,14.5610707 L14.2081511,3.20074279 L15.3886902,3.20074279 C15.727284,3.20074279 16,2.96039704 16,2.66196033 C16,2.36350515 15.727284,2.1231594 15.3886902,2.1231594 Z M5.22049667,2.1231594 L10.8783621,2.1231594 L10.8783621,1.58430303 L5.22049667,1.58430303 L5.22049667,2.1231594 Z M12.3362927,14.5402843 C12.3362927,14.5402843 4.42564299,14.5651725 3.7531519,14.5651725 C3.08057695,14.5651725 3.11817053,13.9559566 3.11817053,13.9559566 L3.11817053,3.71881279 C3.11817053,3.09708814 3.71547446,3.20074279 3.71547446,3.20074279 L12.2611055,3.20074279 C12.2611055,3.20074279 12.9806882,3.16341973 12.9806882,3.71881279 C12.9806882,4.27418739 12.9901233,13.4876076 12.9901233,14.0097979 C12.9901233,14.5278679 12.3362927,14.5402843 12.3362927,14.5402843 Z" id="Fill-1"></path>
                </g>
            </g>
        </g>
    </g>
</svg>
