<svg width="16" height="16" xmlns="http://www.w3.org/2000/svg" xmlns:xlink="http://www.w3.org/1999/xlink">
  <defs>
    <path id="a" d="M0 0h16v16H0z" />
  </defs>
  <g fill="none" fill-rule="evenodd">
    <mask id="b" fill="#fff">
      <use xlink:href="#a" />
    </mask>
    <path
      d="M1.067 13.865V2.138A1.01 1.01 0 0 1 2.134 1.07h11.702a1.006 1.006 0 0 1 1.066 1.07v4.275h1.068V2.138A2.14 2.14 0 0 0 13.836 0H2.134A2.132 2.132 0 0 0 0 2.138v11.724A2.14 2.14 0 0 0 2.134 16h4.268v-1.07H2.134a1.005 1.005 0 0 1-1.067-1.068v.003zm2.657-9.589a.505.505 0 0 0-.523.531.503.503 0 0 0 .523.538h8.507a.501.501 0 0 0 .534-.53.507.507 0 0 0-.534-.535l-8.507-.004zm4.268 4.276H3.724a.533.533 0 0 0 0 1.07h4.268a.534.534 0 0 0 0-1.07zm7.87 3.304a.52.52 0 0 0-.743 0l-2.354 2.327V9.069a.534.534 0 1 0-1.067 0v5.114l-2.234-2.238a.527.527 0 0 0-.747.748l3.088 3.09c.106.106.106.106.21.106h.433c.107 0 .107-.106.214-.106l3.083-3.09a.567.567 0 0 0 .107-.855l.01.018z"
      fill="#FFF" mask="url(#b)" />
  </g>
</svg>
