<?xml version="1.0" encoding="UTF-8"?>
<svg width="15px" height="16px" viewBox="0 0 15 16" version="1.1" xmlns="http://www.w3.org/2000/svg" xmlns:xlink="http://www.w3.org/1999/xlink">
  <title>形状备份 2</title>
  <g id="菜单调整" stroke-width="1" fill-rule="evenodd">
    <g id="1.1菜单布局调整" transform="translate(-1286.000000, -275.000000)" fill-rule="nonzero" stroke-width="0.1">
      <g id="编组-27" transform="translate(287.000000, 256.000000)">
        <g id="编组-25备份-12" transform="translate(0.000000, 5.000000)">
          <g id="编组-87" transform="translate(0.419562, 0.000000)">
            <g id="编组-129" transform="translate(986.234825, 6.000000)">
              <g id="编组-31" transform="translate(13.233629, 6.000000)">
                <path
                  d="M11.326079,3 C12.3440505,3 13.1694327,3.8018018 13.1877746,4.8018018 L13.1877746,7.17117117 C13.1779042,7.43278865 12.9590471,7.63981926 12.6925452,7.63963964 C12.4398271,7.63111112 12.2342395,7.43692064 12.2156577,7.18918919 L12.2156577,4.82882883 C12.2156577,4.35135135 11.8213083,3.95495495 11.3352499,3.94594595 L1.86169557,3.94594595 C1.37563712,3.94594595 0.972116901,4.33333333 0.962945986,4.81081081 L0.962945986,15.1621622 C0.962945986,15.6396396 1.3572953,16.036036 1.84335375,16.045045 L5.28244655,16.045045 C5.54840306,16.045045 5.768505,16.2522523 5.77767592,16.5135135 C5.77767592,16.7747748 5.56674489,16.990991 5.30078838,17 L1.86169557,17 C0.843724102,17 0.00917091416,16.1981982 0,15.1981982 L0,4.82882883 C0,3.82882883 0.81621136,3.01801802 1.83418283,3 L11.326079,3 Z M13.0502108,9.84684685 C13.2336291,10.027027 13.2428,10.3243243 13.0593818,10.5135135 L13.0502108,10.5225225 L8.1621136,15.3603604 C7.9695244,15.5495495 7.66688423,15.5405405 7.47429504,15.3603604 C7.29087675,15.1801802 7.29087675,14.8918919 7.46512412,14.7027027 L7.47429504,14.6936937 L12.3623923,9.85585586 C12.5549815,9.65765766 12.8576216,9.65765766 13.0502108,9.84684685 Z M7.63937149,10.2162162 C7.905328,10.2162162 8.12542994,10.4234234 8.13460086,10.6846847 C8.13460086,10.9459459 7.92366983,11.1621622 7.65771332,11.1711713 L3.14562356,11.1711713 C2.87912164,11.1713508 2.66026457,10.9643202 2.65039419,10.7027027 C2.65039419,10.4414414 2.86132522,10.2252252 3.12728173,10.2162162 L7.63937149,10.2162162 L7.63937149,10.2162162 Z M10.1338601,7.25225225 C10.3998167,7.25225225 10.6199186,7.45945946 10.6290895,7.72072072 C10.6290895,7.98198198 10.4181585,8.1981982 10.152202,8.20720732 L3.14562356,8.20720732 C2.87912164,8.20738683 2.66026457,8.00035622 2.65039419,7.73873874 C2.65039419,7.47747748 2.86132522,7.26126126 3.12728173,7.25225225 L10.1338601,7.25225225 Z"
                  id="形状备份-2"></path>
              </g>
            </g>
          </g>
        </g>
      </g>
    </g>
  </g>
</svg>