<?xml version="1.0" encoding="UTF-8"?>
<svg width="14px" height="14px" viewBox="0 0 14 14" version="1.1" xmlns="http://www.w3.org/2000/svg" xmlns:xlink="http://www.w3.org/1999/xlink">
    <title>bianji-2</title>
    <g id="页面-1" stroke="none" stroke-width="1" fill="none" fill-rule="evenodd">
        <g id="2" transform="translate(-125.000000, -142.000000)" fill="#1B62EC" fill-rule="nonzero">
            <path d="M138.050382,142.168648 C138.189034,142.025033 138.394423,141.967467 138.587513,142.018021 C138.780625,142.068597 138.93149,142.219375 138.981979,142.412487 C139.032533,142.605663 138.974988,142.810966 138.831352,142.949704 L131.020404,150.760825 C130.804636,150.976592 130.454856,150.976592 130.239175,150.760825 C130.023408,150.545144 130.023408,150.195364 130.239175,149.979596 L138.050382,142.168821 L138.050382,142.168648 Z M137.88847,147.898694 C137.88847,147.593599 138.135761,147.346308 138.440878,147.346308 C138.745886,147.346308 138.993264,147.593599 138.993264,147.898694 L138.993264,153.974657 C138.993264,155.093195 138.086459,156 136.967921,156 L127.025343,156 C125.906805,156 125,155.093195 125,153.974657 L125,144.032165 C125,142.913628 125.906805,142.006823 127.025343,142.006823 L132.917235,142.006823 C133.222244,142.006823 133.469621,142.254114 133.469621,142.559122 C133.469621,142.864239 133.222244,143.11153 132.917235,143.11153 L127.025343,143.11153 C126.781181,143.11153 126.54703,143.208539 126.37433,143.381152 C126.201716,143.553766 126.104707,143.788003 126.104707,144.032165 L126.104707,153.974657 C126.104707,154.218819 126.201716,154.45297 126.37433,154.62567 C126.54703,154.798284 126.781181,154.895293 127.025343,154.895293 L136.967921,154.895293 C137.212083,154.895293 137.446234,154.798284 137.618848,154.62567 C137.791548,154.45297 137.88847,154.218819 137.88847,153.974657 L137.88847,147.898694 Z" id="bianji-2"></path>
        </g>
    </g>
</svg>