<?xml version="1.0" encoding="UTF-8"?>
<svg width="16px" height="14px" viewBox="0 0 16 14" version="1.1" xmlns="http://www.w3.org/2000/svg" xmlns:xlink="http://www.w3.org/1999/xlink">
  <title>导出</title>
  <g id="菜单调整" stroke="none" stroke-width="1">
    <g id="1.1菜单布局调整" transform="translate(-1510.000000, -276.000000)">
      <g id="编组-27" transform="translate(287.000000, 256.000000)">
        <g id="编组-25备份-12" transform="translate(0.000000, 5.000000)">
          <g id="编组-87" transform="translate(0.419562, 0.000000)">
            <g id="编组-129" transform="translate(986.234825, 6.000000)">
              <g id="GK列表" transform="translate(223.953724, 0.000000)">
                <g id="编组-15" transform="translate(13.233629, 9.000000)">
                  <path
                    d="M12.8334726,7.78273113 C13.1247492,7.78273113 13.3608756,8.01469497 13.3608756,8.30083686 L13.3608756,12.1693597 C13.3608756,13.1786297 12.5251176,14 11.497385,14 L1.86349053,14 C0.834795076,13.9988579 0.0011625931,13.179921 0,12.1693597 L0,2.70564027 C0.0011625931,1.69507902 0.834795076,0.876142099 1.86349053,0.875 L7.20784076,0.875 C7.49911739,0.875 7.73524375,1.10696384 7.73524375,1.39310574 C7.73524375,1.67924764 7.49911739,1.91121148 7.20784076,1.91121148 L1.86349053,1.91121148 C1.4171073,1.91178234 1.05538706,2.26712604 1.05480595,2.70564027 L1.05480595,12.1697051 C1.05480595,12.6076772 1.41765921,12.9641339 1.86349053,12.9641339 L11.497385,12.9641339 C11.9432163,12.9641339 12.3060696,12.6076772 12.3060696,12.1697051 L12.3060696,8.30118227 C12.3060696,8.01504037 12.542196,7.78307653 12.8334726,7.78307653 L12.8334726,7.78273113 Z M14.0578595,3.10512448 C14.1754352,3.20136722 14.2516006,3.34205659 14.2516006,3.50059462 C14.2516006,3.65948262 14.1758049,3.79982203 14.0578595,3.8967647 L10.9461704,6.84144232 C10.8422265,6.94004068 10.7010373,6.99533689 10.5538817,6.99508073 C10.3297175,6.9948941 10.1277135,6.86699387 10.0419563,6.67095167 C9.9561991,6.47490947 10.0035532,6.24927782 10.1619626,6.09914839 L12.3027278,4.07175149 C7.48545155,4.37412865 5.56282995,6.35252925 5.56282995,10.8500396 C5.56282996,11.0375899 5.45712335,11.2108935 5.28552877,11.3046686 C5.11393419,11.3984438 4.90252095,11.3984438 4.73092637,11.3046686 C4.55933179,11.2108935 4.45362519,11.0375899 4.45362519,10.8500396 C4.45362519,5.71732723 6.84581012,3.32245808 12.3910945,3.01168154 L10.1623324,0.902740797 C10.0180956,0.771000701 9.96017891,0.575845136 10.0108424,0.392281763 C10.0615058,0.208718391 10.2128651,0.0653137033 10.4067456,0.0171850135 C10.600626,-0.0309436763 10.8068556,0.0236935128 10.9461704,0.160096883 L14.0578595,3.10512448 L14.0578595,3.10512448 Z"
                    id="导出"></path>
                </g>
              </g>
            </g>
          </g>
        </g>
      </g>
    </g>
  </g>
</svg>