<svg width="16" height="16" xmlns="http://www.w3.org/2000/svg" xmlns:xlink="http://www.w3.org/1999/xlink"><defs><path id="a" d="M0 0h16v16H0z"/></defs><g fill="none" fill-rule="evenodd"><g><mask id="b" fill="#fff"><use xlink:href="#a"/></mask><path d="M16 6.288a.571.571 0 0 0-1.142 0v7.02c.001.412-.162.807-.454 1.097a1.54 1.54 0 0 1-1.097.453H2.694c-.415 0-.805-.16-1.098-.453a1.54 1.54 0 0 1-.455-1.096V2.695c0-.857.695-1.55 1.552-1.55l7.02.023h.001A.572.572 0 1 0 9.716.024L2.696 0h-.002A2.696 2.696 0 0 0-.001 2.695V13.31A2.69 2.69 0 0 0 2.694 16h10.613A2.689 2.689 0 0 0 16 13.309V6.288z" fill="#2878FF" mask="url(#b)"/></g><path d="M12.042 1.13h2.027L3.165 12.036a.565.565 0 0 0 .8.799L14.87 1.926v2.03A.564.564 0 0 0 16 3.954l-.002-3.39A.565.565 0 0 0 15.434 0h-3.392a.565.565 0 0 0 0 1.13z" fill="#2878FF"/></g></svg>