<?xml version="1.0" encoding="UTF-8"?>
<svg width="912px" height="388px" viewBox="0 0 912 388" version="1.1" xmlns="http://www.w3.org/2000/svg" xmlns:xlink="http://www.w3.org/1999/xlink">
    <title>矩形框</title>
    <defs>
        <path d="M2,0 L908,0 C909.104569,-2.02906125e-16 910,0.8954305 910,2 L910,384 C910,385.104569 909.104569,386 908,386 L2,386 C0.8954305,386 1.3527075e-16,385.104569 0,384 L0,2 C-1.3527075e-16,0.8954305 0.8954305,2.02906125e-16 2,0 Z" id="path-1"></path>
        <linearGradient x1="50%" y1="0%" x2="50%" y2="100%" id="linearGradient-3">
            <stop stop-color="#F2F8FF" offset="0%"></stop>
            <stop stop-color="#FFFFFF" offset="100%"></stop>
        </linearGradient>
        <path d="M0,330 L910,330 L687.446935,385.939665 C687.287517,385.979736 687.123768,386 686.959392,386 L251.254851,386 C251.108382,386 250.962356,385.98391 250.819401,385.95202 L0,330 L0,330 Z" id="path-4"></path>
        <path d="M0,0 L910,0 L687.446935,55.9396653 C687.287517,55.9797356 687.123768,56 686.959392,56 L251.254851,56 C251.108382,56 250.962356,55.9839102 250.819401,55.9520202 L0,0 L0,0 Z" id="path-6"></path>
    </defs>
    <g id="页面-1" stroke="none" stroke-width="1" fill="none" fill-rule="evenodd">
        <g id="策略配置-CZ流程配置" transform="translate(-42.000000, -181.000000)">
            <g id="矩形框" transform="translate(43.000000, 182.000000)">
                <g id="位图">
                    <mask id="mask-2" fill="white">
                        <use xlink:href="#path-1"></use>
                    </mask>
                    <path stroke-opacity="0.15" stroke="#000000" d="M908,-0.5 C908.690356,-0.5 909.315356,-0.220177969 909.767767,0.232233047 C910.220178,0.684644063 910.5,1.30964406 910.5,2 L910.5,2 L910.5,384 C910.5,384.690356 910.220178,385.315356 909.767767,385.767767 C909.315356,386.220178 908.690356,386.5 908,386.5 L908,386.5 L2,386.5 C1.30964406,386.5 0.684644063,386.220178 0.232233047,385.767767 C-0.220177969,385.315356 -0.5,384.690356 -0.5,384 L-0.5,384 L-0.5,2 C-0.5,1.30964406 -0.220177969,0.684644063 0.232233047,0.232233047 C0.684644063,-0.220177969 1.30964406,-0.5 2,-0.5 L2,-0.5 Z"></path>
                    <mask id="mask-5" fill="white">
                        <use xlink:href="#path-4"></use>
                    </mask>
                    <use id="蒙版" fill="url(#linearGradient-3)" transform="translate(455.000000, 358.000000) scale(1, -1) translate(-455.000000, -358.000000) " xlink:href="#path-4"></use>
                </g>
                <mask id="mask-7" fill="white">
                    <use xlink:href="#path-6"></use>
                </mask>
                <use id="蒙版" fill="url(#linearGradient-3)" transform="translate(455.000000, 28.000000) scale(-1, 1) translate(-455.000000, -28.000000) " xlink:href="#path-6"></use>
            </g>
        </g>
    </g>
</svg>