<svg class="icon" viewBox="0 0 1024 1024" xmlns="http://www.w3.org/2000/svg" width="200" height="200"><defs><style>@font-face{font-family:feedback-iconfont;src:url(//at.alicdn.com/t/font_1031158_u69w8yhxdu.woff2?t=1630033759944) format(&quot;woff2&quot;),url(//at.alicdn.com/t/font_1031158_u69w8yhxdu.woff?t=1630033759944) format(&quot;woff&quot;),url(//at.alicdn.com/t/font_1031158_u69w8yhxdu.ttf?t=1630033759944) format(&quot;truetype&quot;)}</style></defs><path d="M242.998 468.37a43.979 43.979 0 0 0 0 87.894h257.473a43.979 43.979 0 1 0 0-87.894zm515.2-161.024a43.916 43.916 0 0 0-38.022-65.905H242.871a43.979 43.979 0 1 0 0 87.894H720.05a44.36 44.36 0 0 0 37.832-21.99z"/><path d="M397.812 940.858H162.518c-26.68 0-36.755-19.01-36.755-48.161l.57-722.421v-29.53c0-29.088 9.506-52.535 36.185-52.535H791.34c26.679 0 40.05 23.447 40.05 52.534l-.444-9.252v270.781a40.494 40.494 0 0 0 40.937 35.931 39.163 39.163 0 0 0 39.734-35.93V105.067A101.012 101.012 0 0 0 815.04 0H137.803a101.392 101.392 0 0 0-96.83 105.068v813.99A101.392 101.392 0 0 0 137.804 1024h259.818a39.48 39.48 0 0 0 27.947-11.533c7.35-7.415 11.66-8.555 11.66-30.355a40.747 40.747 0 0 0-39.416-41.254z"/><path d="M969.855 598.215a43.916 43.916 0 0 0-62.166 0L669.67 836.107 545.528 711.965a43.852 43.852 0 0 0-62.04 62.04L636.274 926.79c.824.887 1.457 1.711 2.408 2.662a44.36 44.36 0 0 0 48.035 9.505h.316c.697 0 1.268-.57 1.838-.824l1.014-.443.887-.444a44.36 44.36 0 0 0 11.534-9.062l267.422-267.676a43.916 43.916 0 0 0 .127-62.293z"/></svg>