<?xml version="1.0" standalone="no"?><!DOCTYPE svg PUBLIC "-//W3C//DTD SVG 1.1//EN" "http://www.w3.org/Graphics/SVG/1.1/DTD/svg11.dtd"><svg t="1648521577116" class="icon" viewBox="0 0 1024 1024" version="1.1" xmlns="http://www.w3.org/2000/svg" p-id="5815" xmlns:xlink="http://www.w3.org/1999/xlink" width="200" height="200"><defs><style type="text/css">@font-face { font-family: feedback-iconfont; src: url("//at.alicdn.com/t/font_1031158_u69w8yhxdu.woff2?t=1630033759944") format("woff2"), url("//at.alicdn.com/t/font_1031158_u69w8yhxdu.woff?t=1630033759944") format("woff"), url("//at.alicdn.com/t/font_1031158_u69w8yhxdu.ttf?t=1630033759944") format("truetype"); }
</style></defs><path d="M242.998012 468.369577a43.978959 43.978959 0 0 0 0 87.894548h257.473359a43.978959 43.978959 0 1 0 0-87.894548z m515.200198-161.023825a43.915589 43.915589 0 0 0-38.022154-65.905069H242.871272a43.978959 43.978959 0 1 0 0 87.894548h477.178043a44.359181 44.359181 0 0 0 37.832044-21.989479z" p-id="5816"></path><path d="M397.811553 940.858221H162.517785c-26.678879 0-36.75475-19.011077-36.75475-48.161396l0.570332-722.420942v-29.53054c0-29.086948 9.505539-52.533944 36.184418-52.533944h628.82307c26.678879 0 40.050003 23.446995 40.050003 52.533944l-0.443591-9.252058v270.781113a40.493595 40.493595 0 0 0 40.937186 35.930936 39.162819 39.162819 0 0 0 39.733152-35.930936v-297.20651a101.012191 101.012191 0 0 0-96.576273-105.067888H137.803384A101.392413 101.392413 0 0 0 40.97363 105.067888V919.058853a101.392413 101.392413 0 0 0 96.829754 104.941147h259.818058a39.479671 39.479671 0 0 0 27.946284-11.533387c7.35095-7.41432 11.660127-8.554985 11.660127-30.354354a40.747076 40.747076 0 0 0-39.4163-41.254038z" p-id="5817"></path><path d="M969.854872 598.215236a43.915589 43.915589 0 0 0-62.166223 0l-238.018689 237.891949-124.142336-124.142336a43.852219 43.852219 0 0 0-62.039482 62.039483l152.785692 152.785692c0.823813 0.887184 1.457516 1.710997 2.40807 2.661551a44.359181 44.359181 0 0 0 48.034655 9.505539h0.316852c0.697073 0 1.267405-0.570332 1.837737-0.823814l1.013924-0.443591 0.887184-0.443592a44.359181 44.359181 0 0 0 11.533387-9.061947l267.422489-267.67597a43.915589 43.915589 0 0 0 0.12674-62.292964z" p-id="5818"></path></svg>