<?xml version="1.0" encoding="UTF-8"?>
<svg width="14px" height="14px" viewBox="0 0 14 14" version="1.1" xmlns="http://www.w3.org/2000/svg" xmlns:xlink="http://www.w3.org/1999/xlink">
    <title>表格</title>
    <g id="页面-1" stroke="none" stroke-width="1"  fill-rule="evenodd">
        <g id="画板" transform="translate(-310.000000, -177.000000)"  fill-rule="nonzero">
            <path d="M322,177 L312,177 C310.89543,177 310,177.895431 310,179 L310,180.5 L310,180.5 L310.015625,180.5 L310.015625,183.0625 L310,183.0625 L310,184.0625 L310.015625,184.0625 L310.015625,186.5625 L310,186.5625 L310,187.5625 L310.015625,187.5625 L310.015625,190.995313 L314.3125,190.995313 L315.3125,191 L318.6875,190.995313 L319.6875,191 L323.984375,190.995313 L323.984375,180.5 L324,180.5 L324,179 C324,177.895431 323.10457,177 322,177 Z M318.6875,183.0625 L315.3125,183.0625 L315.3125,180.5 L318.6875,180.5 L318.6875,183.0625 Z M318.6875,186.5625 L315.3125,186.5625 L315.3125,184.0625 L318.6875,184.0625 L318.6875,186.5625 Z M319.6875,184.0625 L322.984375,184.0625 L322.984375,186.5625 L319.6875,186.5625 L319.6875,184.0625 Z M311.015625,180.5 L314.3125,180.5 L314.3125,183.0625 L311.015625,183.0625 L311.015625,180.5 Z M311.015625,184.0625 L314.3125,184.0625 L314.3125,186.5625 L311.015625,186.5625 L311.015625,184.0625 Z M311.015625,189.995313 L311.015625,187.5625 L314.3125,187.5625 L314.3125,189.995313 L311.015625,189.995313 Z M315.3125,189.995313 L315.3125,187.5625 L318.6875,187.5625 L318.6875,189.995313 L315.3125,189.995313 Z M319.6875,189.995313 L319.6875,187.5625 L322.984375,187.5625 L322.984375,189.995313 L319.6875,189.995313 Z M322.984375,183.0625 L319.6875,183.0625 L319.6875,180.5 L322.984375,180.5 L322.984375,183.0625 Z" id="表格1"></path>
        </g>
    </g>
</svg>