<svg width="20" height="20" xmlns="http://www.w3.org/2000/svg" xmlns:xlink="http://www.w3.org/1999/xlink"><defs><path id="a" d="M11.667 15h5v-1.667h-5z"/><filter x="-80%" y="-240%" width="260%" height="580%" filterUnits="objectBoundingBox" id="b"><feGaussianBlur stdDeviation="4" in="SourceAlpha" result="shadowBlurInner1"/><feOffset in="shadowBlurInner1" result="shadowOffsetInner1"/><feComposite in="shadowOffsetInner1" in2="SourceAlpha" operator="arithmetic" k2="-1" k3="1" result="shadowInnerInner1"/><feColorMatrix values="0 0 0 0 0 0 0 0 0 0.592156863 0 0 0 0 1 0 0 0 0.13120083 0" in="shadowInnerInner1"/></filter><path id="c" d="M3.333 15H10v-5H3.333z"/><filter x="-60%" y="-80%" width="220%" height="260%" filterUnits="objectBoundingBox" id="d"><feGaussianBlur stdDeviation="4" in="SourceAlpha" result="shadowBlurInner1"/><feOffset in="shadowBlurInner1" result="shadowOffsetInner1"/><feComposite in="shadowOffsetInner1" in2="SourceAlpha" operator="arithmetic" k2="-1" k3="1" result="shadowInnerInner1"/><feColorMatrix values="0 0 0 0 0 0 0 0 0 0.592156863 0 0 0 0 1 0 0 0 0.13120083 0" in="shadowInnerInner1"/></filter><path id="e" d="M11.667 11.667h5V10h-5z"/><filter x="-80%" y="-240%" width="260%" height="580%" filterUnits="objectBoundingBox" id="f"><feGaussianBlur stdDeviation="4" in="SourceAlpha" result="shadowBlurInner1"/><feOffset in="shadowBlurInner1" result="shadowOffsetInner1"/><feComposite in="shadowOffsetInner1" in2="SourceAlpha" operator="arithmetic" k2="-1" k3="1" result="shadowInnerInner1"/><feColorMatrix values="0 0 0 0 0 0 0 0 0 0.592156863 0 0 0 0 1 0 0 0 0.13120083 0" in="shadowInnerInner1"/></filter></defs><g fill="none" fill-rule="evenodd"><rect fill="#FFF" x="2" y="10" width="16.667" height="8" rx="2"/><path d="M19.167 0H.833A.836.836 0 0 0 0 .833v18.334c0 .458.375.833.833.833h18.334a.836.836 0 0 0 .833-.833V.833A.836.836 0 0 0 19.167 0zM3.333 8.333h13.334V5H3.333v3.333z" fill="#3559F2"/><path fill="#FFF" d="M3.333 15H10v-5H3.333zM11.667 15h5v-1.667h-5z"/><g opacity=".269"><use fill-opacity=".5" fill="#FFF" xlink:href="#a"/><use fill="#000" filter="url(#b)" xlink:href="#a"/></g><path fill="#FFF" d="M11.667 11.667h5V10h-5z"/><g opacity=".269"><use fill-opacity=".5" fill="#FFF" xlink:href="#c"/><use fill="#000" filter="url(#d)" xlink:href="#c"/></g><g opacity=".269"><use fill-opacity=".5" fill="#FFF" xlink:href="#e"/><use fill="#000" filter="url(#f)" xlink:href="#e"/></g><path fill="#FFF" d="M3.333 5h13.334v3.333H3.333z"/></g></svg>