<svg width="16" height="16" xmlns="http://www.w3.org/2000/svg"><path d="M16 9.792v3.345A2.87 2.87 0 0 1 13.136 16H2.864A2.87 2.87 0 0 1 0 13.137V2.862A2.87 2.87 0 0 1 2.864 0h4.694a.58.58 0 1 1 0 1.159H2.864c-.935 0-1.702.767-1.702 1.703v10.275a1.71 1.71 0 0 0 1.702 1.704h10.272a1.71 1.71 0 0 0 1.702-1.704V9.792a.58.58 0 0 1 1.162 0zm-.865-8.88a2.688 2.688 0 0 1 0 3.797l-1.7 1.696a3.683 3.683 0 0 0-.27-1.468l1.096-1.094a1.458 1.458 0 0 0 0-2.057l-.043-.044a1.466 1.466 0 0 0-2.063 0L9.73 4.162a1.459 1.459 0 0 0 0 2.057l.043.044c.087.086.184.16.29.222l-.887.884a2.616 2.616 0 0 1-.277-.24l-.043-.042a2.696 2.696 0 0 1 0-3.803L11.28.869a2.709 2.709 0 0 1 3.81 0l.044.044zm-3.589 3.49l.043.043a2.696 2.696 0 0 1 0 3.803l-2.425 2.42a2.71 2.71 0 0 1-3.811 0l-.043-.043a2.695 2.695 0 0 1 0-3.803L7.01 5.127a3.667 3.667 0 0 0 .27 1.468L6.185 7.688a1.459 1.459 0 0 0 0 2.058l.043.043a1.467 1.467 0 0 0 2.063 0l2.425-2.42a1.46 1.46 0 0 0 0-2.058l-.044-.043a1.443 1.443 0 0 0-.289-.221l.887-.885c.098.073.19.155.277.24z" fill="#1B62EC" fill-rule="nonzero"/></svg>