<svg width="52" height="49" xmlns="http://www.w3.org/2000/svg"><defs><filter x="-67.3%" y="-77.7%" width="234.6%" height="255.3%" filterUnits="objectBoundingBox" id="a"><feOffset dy="3" in="SourceAlpha" result="shadowOffsetOuter1"/><feGaussianBlur stdDeviation="3" in="shadowOffsetOuter1" result="shadowBlurOuter1"/><feColorMatrix values="0 0 0 0 0.105882353 0 0 0 0 0.384313725 0 0 0 0 0.925490196 0 0 0 0.197240869 0" in="shadowBlurOuter1" result="shadowMatrixOuter1"/><feMerge><feMergeNode in="shadowMatrixOuter1"/><feMergeNode in="SourceGraphic"/></feMerge></filter></defs><g filter="url(#a)" transform="translate(13 13)" fill="#3D70E0" fill-rule="evenodd"><path d="M19.113 20.95c.298.453.298 1.056 0 1.357-.298.302-.895.302-1.343 0l-3.432-3.466c-3.581 2.863-8.655 2.562-11.789-.603-3.133-3.166-3.432-8.44-.597-11.908 2.985-3.918 8.655-4.521 12.386-1.356a9.339 9.339 0 0 1 3.283 6.029c.298 2.411-.448 4.672-1.94 6.632l3.432 3.316zm-17.16-8.892c0 3.768 3.133 6.933 6.864 6.933 3.73 0 6.864-3.014 6.864-6.933 0-2.562-1.343-4.823-3.432-6.18-2.09-1.356-4.775-1.206-7.014 0-2.238 1.206-3.283 3.618-3.283 6.18zM21.821 4.22h3.283c.447 0 .895.452.895 1.055s-.448 1.055-.895 1.055h-3.283v3.316c0 .453-.448 1.055-.896 1.055-.447 0-.895-.452-.895-1.055V6.33h-3.283c-.447 0-.895-.452-.895-1.055s.448-1.055.895-1.055h3.283V.904c0-.452.448-.904.895-.904.448 0 .896.452.896.904V4.22z"/></g></svg>