<svg width="20" height="20" xmlns="http://www.w3.org/2000/svg" xmlns:xlink="http://www.w3.org/1999/xlink"><defs><path d="M10.602 14.268H1.716c-.265-2.09 1.216-3.136 4.443-3.136 3.227 0 4.708 1.045 4.443 3.136z" id="a"/><filter x="-44.7%" y="-127.5%" width="189.4%" height="355.1%" filterUnits="objectBoundingBox" id="b"><feGaussianBlur stdDeviation="4" in="SourceAlpha" result="shadowBlurInner1"/><feOffset in="shadowBlurInner1" result="shadowOffsetInner1"/><feComposite in="shadowOffsetInner1" in2="SourceAlpha" operator="arithmetic" k2="-1" k3="1" result="shadowInnerInner1"/><feColorMatrix values="0 0 0 0 0 0 0 0 0 0.592156863 0 0 0 0 1 0 0 0 0.13120083 0" in="shadowInnerInner1"/></filter><path id="c" d="M12 6.4h5.6V8H12z"/><filter x="-71.4%" y="-250%" width="242.9%" height="600%" filterUnits="objectBoundingBox" id="d"><feGaussianBlur stdDeviation="4" in="SourceAlpha" result="shadowBlurInner1"/><feOffset in="shadowBlurInner1" result="shadowOffsetInner1"/><feComposite in="shadowOffsetInner1" in2="SourceAlpha" operator="arithmetic" k2="-1" k3="1" result="shadowInnerInner1"/><feColorMatrix values="0 0 0 0 0 0 0 0 0 0.592156863 0 0 0 0 1 0 0 0 0.13120083 0" in="shadowInnerInner1"/></filter><path id="e" d="M12 8.8h5.6v1.6H12z"/><filter x="-71.4%" y="-250%" width="242.9%" height="600%" filterUnits="objectBoundingBox" id="f"><feGaussianBlur stdDeviation="4" in="SourceAlpha" result="shadowBlurInner1"/><feOffset in="shadowBlurInner1" result="shadowOffsetInner1"/><feComposite in="shadowOffsetInner1" in2="SourceAlpha" operator="arithmetic" k2="-1" k3="1" result="shadowInnerInner1"/><feColorMatrix values="0 0 0 0 0 0 0 0 0 0.592156863 0 0 0 0 1 0 0 0 0.13120083 0" in="shadowInnerInner1"/></filter><path id="g" d="M12 11.2h5.6v1.6H12z"/><filter x="-71.4%" y="-250%" width="242.9%" height="600%" filterUnits="objectBoundingBox" id="h"><feGaussianBlur stdDeviation="4" in="SourceAlpha" result="shadowBlurInner1"/><feOffset in="shadowBlurInner1" result="shadowOffsetInner1"/><feComposite in="shadowOffsetInner1" in2="SourceAlpha" operator="arithmetic" k2="-1" k3="1" result="shadowInnerInner1"/><feColorMatrix values="0 0 0 0 0 0 0 0 0 0.592156863 0 0 0 0 1 0 0 0 0.13120083 0" in="shadowInnerInner1"/></filter></defs><g fill="none" fill-rule="evenodd"><path d="M20 18.17c0 .504-.155.935-.458 1.293-.304.358-.672.537-1.102.537h-3.442v-1.1a.399.399 0 0 0-.088-.264.283.283 0 0 0-.225-.103h-.625a.287.287 0 0 0-.225.103.386.386 0 0 0-.087.264V20h-7.5v-1.1a.4.4 0 0 0-.088-.264.277.277 0 0 0-.225-.103H5.31a.287.287 0 0 0-.225.103.386.386 0 0 0-.087.264V20H1.56c-.43 0-.798-.182-1.103-.537a1.927 1.927 0 0 1-.457-1.295V1.831C0 1.326.153.895.458.537.763.179 1.131 0 1.561 0h16.874c.43 0 .798.182 1.102.537.306.354.463.787.463 1.295V18.17z" fill="#3559F2"/><path d="M6.046 5.468a2.352 2.352 0 1 1 .054 4.704 2.352 2.352 0 0 1-.054-4.704z" fill="#FFF"/><g><use fill-opacity=".5" fill="#FFF" xlink:href="#a"/><use fill="#000" filter="url(#b)" xlink:href="#a"/></g><g><use fill-opacity=".5" fill="#FFF" xlink:href="#c"/><use fill="#000" filter="url(#d)" xlink:href="#c"/></g><g><use fill-opacity=".5" fill="#FFF" xlink:href="#e"/><use fill="#000" filter="url(#f)" xlink:href="#e"/></g><g><use fill-opacity=".5" fill="#FFF" xlink:href="#g"/><use fill="#000" filter="url(#h)" xlink:href="#g"/></g></g></svg>