<svg width="16" height="16" xmlns="http://www.w3.org/2000/svg"><g fill="#1B62EC" fill-rule="evenodd"><path d="M11.449.822h-1.146v4.73h4.73V4.405H12.26L15.646.828l-.66-.769-3.537 3.537V.822zM14.769 8v5.995c0 .474-.361.86-.804.86H2.035c-.443 0-.804-.386-.804-.86V2.005c0-.474.361-.86.804-.86H8V0H2.035C.913 0 0 .899 0 2.005v11.99C0 15.1.913 16 2.035 16h11.93C15.087 16 16 15.101 16 13.995V8h-1.23z" fill-rule="nonzero"/><text font-family="PingFangSC-Medium, PingFang SC" font-size="8" font-weight="400"><tspan x="3" y="13">url</tspan></text></g></svg>