<svg width="16" height="16" xmlns="http://www.w3.org/2000/svg" xmlns:xlink="http://www.w3.org/1999/xlink"><defs><path id="a" d="M0 0h16v16.001H0z"/></defs><g fill="none" fill-rule="evenodd"><mask id="b" fill="#fff"><use xlink:href="#a"/></mask><path d="M14.6 4h-2.08A4.544 4.544 0 0 0 8 0a4.542 4.542 0 0 0-4.52 4H1.398c-.76 0-1.4.6-1.4 1.4v9.201c0 .758.64 1.4 1.4 1.4h13.2A1.417 1.417 0 0 0 16 14.6V5.4c0-.8-.64-1.4-1.4-1.4zM8 1.2c1.64 0 3.04 1.201 3.28 2.801H4.72c.24-1.6 1.64-2.8 3.28-2.8zm6.799 13.401c0 .12-.08.2-.2.2H1.4a.19.19 0 0 1-.2-.2v-9.2c0-.12.08-.2.2-.2h13.2c.12 0 .2.08.2.2v9.2zm-8.44-4.36a.507.507 0 0 0-.72 0l-.48.48c-.24-1 0-2.08.76-2.84a2.98 2.98 0 0 1 3.48-.52c.24.12.56.04.68-.2.12-.24.04-.56-.2-.68-1.52-.8-3.44-.52-4.68.68a3.955 3.955 0 0 0-.72 4.64c.041.04.041.08.08.12v.04a.507.507 0 0 0 .72 0l1.04-1.04c.24-.16.24-.48.04-.68zm5.24-1.96c-.04-.04-.04-.08-.08-.12a.508.508 0 0 0-.72 0l-1.04 1.04a.508.508 0 0 0 0 .72.506.506 0 0 0 .72 0l.44-.44c.16.96-.12 1.92-.8 2.64a2.999 2.999 0 0 1-3.36.6c-.24-.12-.56 0-.68.24s0 .56.24.68c.52.24 1.12.361 1.68.361a3.94 3.94 0 0 0 2.8-1.16c1.2-1.24 1.52-3.04.8-4.56 0 .039 0 0 0 0z" fill="#1B62EC" mask="url(#b)"/></g></svg>