<?xml version="1.0" encoding="UTF-8"?>
<svg width="14px" height="14px" viewBox="0 0 14 14" version="1.1" xmlns="http://www.w3.org/2000/svg" xmlns:xlink="http://www.w3.org/1999/xlink">
    <title>柱图</title>
    <g id="页面-1" stroke="none" stroke-width="1" fill-rule="evenodd">
        <g id="画板" transform="translate(-666.000000, -177.000000)"  fill-rule="nonzero">
            <path d="M668.617647,177 L668.617,189.5 L669.323,189.5 L669.323529,182 L671.441176,182 L671.441,189.5 L674.558,189.5 L674.558824,179 L676.676471,179 L676.676,189.5 L677.382,189.5 L677.382353,183.363636 L679.5,183.363636 L679.499,189.5 L680,189.5 L680,190.5 L679.499,190.5 L679.5,191 L677.382353,191 L677.382,190.5 L676.676,190.5 L676.676471,191 L674.558824,191 L674.558,190.5 L671.441,190.5 L671.441176,191 L669.323529,191 L669.323,190.5 L668.617,190.5 L668.617647,191 L666.5,191 L666.5,190.5 L666,190.5 L666,189.5 L666.5,189.5 L666.5,177 L668.617647,177 Z" id="2"></path>
        </g>
    </g>
</svg>