<?xml version="1.0" encoding="UTF-8"?>
<svg width="14px" height="14px" viewBox="0 0 14 14" version="1.1" xmlns="http://www.w3.org/2000/svg" xmlns:xlink="http://www.w3.org/1999/xlink">
    <!-- <title>饼图</title> -->
    <g id="任务执行系统" stroke="none" stroke-width="1"  fill-rule="evenodd">
        <g id="(角色2)4统计分析-2任务统计" transform="translate(-907.000000, -209.000000)" fill-rule="nonzero">
            <g id="bingtu" transform="translate(907.000000, 209.000000)">
                <path d="M6.48064258,0 L6.47437775,6.99624445 L6.47594396,7.04636306 C6.47751017,7.06515753 6.48064258,7.08395201 6.48377499,7.10274649 C6.46654672,7.24370508 6.50726809,7.38466366 6.59654186,7.49429812 L6.63413082,7.53658569 L11.3891338,12.4638714 C8.36635521,14.8820942 3.95435149,14.3918716 1.53612865,11.369093 C-0.882094191,8.34631445 -0.391871556,3.93431074 2.63090699,1.51608789 C3.73195017,0.634313634 5.07418914,0.106502042 6.48064258,0 Z M8.07660701,7.51779121 L13.9968676,7.51622501 C13.8808973,9.09345452 13.232567,10.5845038 12.1581412,11.7449826 L8.07817321,7.51779121 L13.9984338,7.51622501 L8.07817321,7.51622501 L8.07817321,7.51779121 L8.07660701,7.51779121 Z M7.52686852,6.46530044 L7.53156714,4.4408921e-16 C10.9881849,0.259990279 13.7353111,3.00711649 13.9968676,6.46373424 L7.52686852,6.46530044 L7.53156714,4.4408921e-16 L7.52686852,6.46530044 Z" id="饼图"></path>
            </g>
        </g>
    </g>
</svg>