<svg width="16" height="16" xmlns="http://www.w3.org/2000/svg" xmlns:xlink="http://www.w3.org/1999/xlink"><defs><path id="a" d="M0 0h16v16.001H0z"/></defs><g fill="none" fill-rule="evenodd"><g><mask id="b" fill="#fff"><use xlink:href="#a"/></mask><path d="M12 11.43H3.999c-.343 0-.571-.229-.571-.572 0-.343.228-.571.571-.571h8c.344 0 .572.228.572.571 0 .343-.228.572-.571.572zm0 2.285H3.999c-.343 0-.571-.228-.571-.571 0-.343.228-.572.571-.572h8c.344 0 .572.23.572.572 0 .343-.228.571-.571.571z" fill="#1B62EC" mask="url(#b)"/><path d="M13.714 1.143c.686 0 1.143.457 1.143 1.143v11.43c0 .685-.457 1.142-1.143 1.142H2.284c-.685 0-1.142-.457-1.142-1.143V2.285c0-.685.457-1.142 1.143-1.142h11.429zm0-1.143H2.284A2.293 2.293 0 0 0 0 2.286v11.43A2.293 2.293 0 0 0 2.285 16h11.429A2.293 2.293 0 0 0 16 13.715V2.285A2.293 2.293 0 0 0 13.714 0z" fill="#1B62EC" mask="url(#b)"/></g><path d="M8 6.743c-1.258 0-2.172-1.028-2.172-2.285 0-1.258.914-2.172 2.171-2.172a2.17 2.17 0 0 1 2.172 2.172c0 1.142-.914 2.285-2.172 2.285zM8 3.43c-.572 0-1.03.457-1.03 1.029 0 .571.458 1.028 1.03 1.028.57 0 1.028-.457 1.028-1.028 0-.572-.457-1.03-1.029-1.03z" fill="#1B62EC"/><path d="M11.542 9.144H10.4c0-1.372-1.143-2.4-2.4-2.4-1.258 0-2.4 1.028-2.4 2.4H4.455C4.456 7.2 6.056 5.6 8 5.6s3.543 1.6 3.543 3.544z" fill="#1B62EC"/></g></svg>