<svg width="20" height="20" xmlns="http://www.w3.org/2000/svg" xmlns:xlink="http://www.w3.org/1999/xlink"><defs><path d="M16.932 16.668h-13.6c-.405-3.2 1.862-4.8 6.8-4.8s7.205 1.6 6.8 4.8z" id="a"/><filter x="-29.2%" y="-83.3%" width="158.4%" height="266.7%" filterUnits="objectBoundingBox" id="b"><feGaussianBlur stdDeviation="4" in="SourceAlpha" result="shadowBlurInner1"/><feOffset in="shadowBlurInner1" result="shadowOffsetInner1"/><feComposite in="shadowOffsetInner1" in2="SourceAlpha" operator="arithmetic" k2="-1" k3="1" result="shadowInnerInner1"/><feColorMatrix values="0 0 0 0 0 0 0 0 0 0.592156863 0 0 0 0 1 0 0 0 0.13120083 0" in="shadowInnerInner1"/></filter></defs><g fill="none" fill-rule="evenodd"><path d="M0 2.224v15.552A2.22 2.22 0 0 0 2.224 20h15.552A2.228 2.228 0 0 0 20 17.776V2.224A2.228 2.228 0 0 0 17.776 0H2.224A2.22 2.22 0 0 0 0 2.224zm13.332 4.444a3.332 3.332 0 1 1-6.664-.008 3.332 3.332 0 0 1 6.664.008zm-10 8.888c0-2.224 4.444-3.444 6.668-3.444s6.668 1.2 6.668 3.444v1.112H3.332v-1.112z" fill="#3559F2"/><path d="M9.96 3.2a3.6 3.6 0 1 1 .08 7.2 3.6 3.6 0 0 1-.08-7.2z" fill="#FFF"/><g opacity=".269"><use fill-opacity=".5" fill="#FFF" xlink:href="#a"/><use fill="#000" filter="url(#b)" xlink:href="#a"/></g></g></svg>