<svg width="18" height="18" xmlns="http://www.w3.org/2000/svg"><g fill="#1B62EC" fill-rule="nonzero" stroke="#005DF5" stroke-width=".2"><path d="M2.829 17C1.8 17 1 16.2 1 15.171V2.83C1 1.8 1.8 1 2.829 1H8.2c.229 0 .343.229.343.343 0 .114-.114.457-.343.457H2.829c-.572 0-1.029.457-1.029 1.029v12.228c0 .572.457 1.029 1.029 1.029h12.228c.572 0 1.029-.457 1.029-1.029v-4.914c0-.229.228-.343.343-.343.342 0 .571.114.571.343v5.028C17 16.2 16.2 17 15.171 17H2.83z"/><path d="M8.543 12.771h.114c.114 0 .229-.114.229-.114l2.971-2.743c.229-.228.229-.571.114-.8-.114 0-.228 0-.457-.114-.114 0-.228.114-.343.229l-2.057 1.828c.229-3.886 4.229-8 7.657-9.028A.246.246 0 0 0 17 1.8v-.457A.628.628 0 0 0 16.429 1h-.115c-3.657 1.143-7.885 5.714-8.228 9.943L6.37 8.886c-.114-.115-.228-.115-.342-.115-.115 0-.229 0-.343.115a.552.552 0 0 0 0 .8L8.2 12.657c0 .114.114.114.343.114z"/></g></svg>