<svg t="1675936316288" class="icon" viewBox="0 0 1024 1024" version="1.1" xmlns="http://www.w3.org/2000/svg" p-id="18976" width="200" height="200"><path d="M842.24 14.72c71.04 0 128.64 56.96 129.92 128v168.32a34.56 34.56 0 0 1-34.56 33.28 34.56 34.56 0 0 1-33.28-32V144.64c0-33.92-27.52-62.08-61.44-62.72H181.76c-33.92 0-62.08 27.52-62.72 61.44v735.36c0 33.92 27.52 62.08 61.44 62.72h240c18.56 0 33.92 14.72 34.56 33.28 0 18.56-14.72 33.92-33.28 34.56H181.76c-71.04 0-129.28-56.96-129.92-128V144.64c0-71.04 56.96-128.64 128-129.92h662.4z m120.32 486.4c12.8 12.8 13.44 33.92 0.64 47.36l-0.64 0.64-341.12 343.68c-13.44 13.44-34.56 12.8-48 0-12.8-12.8-12.8-33.28-0.64-46.72l0.64-0.64 341.12-343.68c13.44-14.08 34.56-14.08 48-0.64z m-377.6 26.24c18.56 0 33.92 14.72 34.56 33.28 0 18.56-14.72 33.92-33.28 34.56H271.36a34.56 34.56 0 0 1-34.56-33.28c0-18.56 14.72-33.92 33.28-34.56h314.88z m174.08-210.56c18.56 0 33.92 14.72 34.56 33.28 0 18.56-14.72 33.92-33.28 34.56H271.36a34.56 34.56 0 0 1-34.56-33.28c0-18.56 14.72-33.92 33.28-34.56h488.96z" p-id="18977"></path></svg>
