<svg width="16" height="16" xmlns="http://www.w3.org/2000/svg"><g fill="#1B62EC" fill-rule="evenodd"><path d="M15.579 12.211c-.305 0-.43.201-.43.503v2.503H5.72v-4.424h2.36c.304 0 .557-.107.557-.408 0-.302-.253-.453-.558-.453h-2.7a.55.55 0 0 0-.552.547v2.326h-2.09l-.06-7.48h6.947a.91.91 0 0 0 .914-.906V.906A.91.91 0 0 0 9.623 0H.915A.911.911 0 0 0 0 .906V4.42c0 .5.41.906.915.906h.852l.062 7.753c0 .24.154.442.372.515a.55.55 0 0 0 .307.094h2.32v1.765A.55.55 0 0 0 5.38 16h10.068a.55.55 0 0 0 .552-.547v-2.738c0-.302-.117-.503-.421-.503zM.869.906h8.735V4.49H.87V.906H.869z"/><path d="M14.757 10.635h-2.264V8.388a.373.373 0 0 0-.185-.335.38.38 0 0 0-.385 0c-.119.07-.19.199-.184.335v2.247H9.481a.378.378 0 0 0-.34.183.375.375 0 0 0 .34.565h2.26v2.242c-.011.14.058.274.18.347.12.073.272.073.393 0a.373.373 0 0 0 .18-.347v-2.244h2.263a.378.378 0 0 0 .34-.181.37.37 0 0 0 0-.383.378.378 0 0 0-.34-.182z"/></g></svg>