<?xml version="1.0" encoding="UTF-8"?>
<svg width="16px" height="16px" viewBox="0 0 16 16" version="1.1" xmlns="http://www.w3.org/2000/svg" xmlns:xlink="http://www.w3.org/1999/xlink">
  <title>二维码</title>
  <g id="页面-1" stroke="none" stroke-width="1" fill-rule="evenodd">
    <g id="执行系统-工作流配置" transform="translate(-1038.000000, -159.000000)" fill-rule="nonzero">
      <g id="二维码icon" transform="translate(1038.000000, 159.000000)">
        <path
          d="M11.0769231,11.0769231 L13.5384615,11.0769231 L13.5384615,8.61538462 L16,8.61538462 L16,12.3076923 L13.5384615,12.3076923 L13.5384615,13.5384615 L11.0769231,13.5384615 L11.0769231,12.3076923 L8.61538462,12.3076923 L8.61538462,8.61538462 L11.0769231,8.61538462 L11.0769231,11.0769231 Z M0,8.61538462 L7.38461538,8.61538462 L7.38461538,16 L0,16 L0,8.61538462 Z M2.46153848,11.0769231 L2.46153848,13.5384615 L4.92307693,13.5384615 L4.92307693,11.0769231 L2.46153848,11.0769231 Z M0,0 L7.38461538,0 L7.38461538,7.38461538 L0,7.38461538 L0,0 Z M2.46153848,2.46153848 L2.46153848,4.92307693 L4.92307693,4.92307693 L4.92307693,2.46153848 L2.46153848,2.46153848 Z M8.61538462,0 L16,0 L16,7.38461538 L8.61538462,7.38461538 L8.61538462,0 Z M11.0769231,2.46153848 L11.0769231,4.92307693 L13.5384615,4.92307693 L13.5384615,2.46153848 L11.0769231,2.46153848 Z M13.5384615,13.5384615 L16,13.5384615 L16,16 L13.5384615,16 L13.5384615,13.5384615 Z M8.61538462,13.5384615 L11.0769231,13.5384615 L11.0769231,16 L8.61538462,16 L8.61538462,13.5384615 Z"
          id="形状"></path>
      </g>
    </g>
  </g>
</svg>
