<svg width="16" height="16" xmlns="http://www.w3.org/2000/svg" xmlns:xlink="http://www.w3.org/1999/xlink"><defs><path id="a" d="M0 0h16v16.001H0z"/></defs><g fill="none" fill-rule="evenodd"><mask id="b" fill="#fff"><use xlink:href="#a"/></mask><path d="M14 0a2 2 0 0 1 2 2v5.707a.667.667 0 1 1-1.333 0V5.334H1.332V14c0 .349.269.639.617.665l.05.002h5.234a.667.667 0 1 1 0 1.333H2a2 2 0 0 1-2-2v-12a2 2 0 0 1 2-2.001h12zm-1.833 7.667c1.404 0 2.135.937 2.167 2.362A2 2 0 0 1 16 12v2a2 2 0 0 1-2 2h-3.334a2 2 0 0 1-2-2v-2A2 2 0 0 1 10 10.114c.015-1.496.731-2.447 2.167-2.447zM14 11.334h-3.334a.667.667 0 0 0-.666.667v2c0 .368.298.667.666.667H14a.667.667 0 0 0 .667-.667v-2a.667.667 0 0 0-.667-.667zm-8.477-.667a.667.667 0 1 1 0 1.334h-2.19a.667.667 0 1 1 0-1.334h2.19zm6.644-1.666c-.572 0-.802.262-.831 1H13c-.024-.72-.265-1-.832-1zM8.333 7.334a.667.667 0 0 1 0 1.333h-5a.667.667 0 0 1 0-1.333h5zm5.667-6H1.999A.667.667 0 0 0 1.332 2v2h13.335V2a.667.667 0 0 0-.617-.665L14 1.333z" fill="#1B62EC" mask="url(#b)"/></g></svg>