<svg width="16" height="17" xmlns="http://www.w3.org/2000/svg" xmlns:xlink="http://www.w3.org/1999/xlink"><defs><path id="a" d="M0 0h16v16.02H0z"/></defs><g fill="none" fill-rule="evenodd"><mask id="b" fill="#fff"><use xlink:href="#a"/></mask><path d="M15.395 9.99h-2.04l-.012-1.884a.605.605 0 0 0-.605-.605H8.575V6.037h1.249c.04 0 .08-.002.12-.007h.676a.605.605 0 0 0 .605-.605V.605A.605.605 0 0 0 10.62 0H5.218a.605.605 0 0 0-.605.605v4.82c0 .334.271.605.605.605h.686c.04.005.08.007.12.007h1.335v1.47l-4.38.015a.605.605 0 0 0-.605.605v1.856H.604a.605.605 0 0 0-.605.605v4.822a.605.605 0 0 0 .604.605H6.01a.605.605 0 0 0 .605-.605v-4.822a.605.605 0 0 0-.605-.605H3.612V8.801h8.494v1.188H9.99a.605.605 0 0 0-.605.605v4.82a.605.605 0 0 0 .605.606h5.406a.605.605 0 0 0 .605-.605v-4.82a.605.605 0 0 0-.605-.606zM1.26 14.756h4.095v-3.51H1.26v3.51zm4.61-9.984V1.265h4.096V4.77l-4.096.003zm8.873 9.99h-4.098v-3.516h4.096l.002 3.515z" fill="#1B62EC" mask="url(#b)"/></g></svg>