<svg width="20" height="20" xmlns="http://www.w3.org/2000/svg" xmlns:xlink="http://www.w3.org/1999/xlink"><defs><path d="M1.72 4h.115c.95 0 1.72.77 1.72 1.72v1.836H1.722C.77 7.556 0 6.786 0 5.836V5.72A1.72 1.72 0 0 1 1.72 4zm0 4.444h1.836v1.836c0 .95-.77 1.72-1.72 1.72H1.72C.77 12 0 11.23 0 10.28v-.115c0-.95.77-1.72 1.72-1.72zm4.56 0c.95 0 1.72.77 1.72 1.72v.116C8 11.23 7.23 12 6.28 12h-.115c-.95 0-1.72-.77-1.72-1.72V8.444H6.28zM6.28 4C7.23 4 8 4.77 8 5.72v.115c0 .95-.77 1.72-1.72 1.72H4.444V5.72c0-.95.77-1.72 1.72-1.72h.116z" id="a"/><filter x="-50%" y="-50%" width="200%" height="200%" filterUnits="objectBoundingBox" id="b"><feGaussianBlur stdDeviation="4" in="SourceAlpha" result="shadowBlurInner1"/><feOffset in="shadowBlurInner1" result="shadowOffsetInner1"/><feComposite in="shadowOffsetInner1" in2="SourceAlpha" operator="arithmetic" k2="-1" k3="1" result="shadowInnerInner1"/><feColorMatrix values="0 0 0 0 0 0 0 0 0 0.592156863 0 0 0 0 1 0 0 0 0.13120083 0" in="shadowInnerInner1"/></filter></defs><g fill="none" fill-rule="evenodd"><path d="M15.9 0c1.38 0 2.5 1.12 2.5 2.5l1.6 15c0 1.38-1.12 2.5-2.5 2.5h-15C1.12 20 0 18.88 0 17.5l1.6-15C1.6 1.12 2.72 0 4.1 0h11.8z" fill="#3559F2"/><g transform="translate(6.4 4)"><use fill-opacity=".5" fill="#FFF" xlink:href="#a"/><use fill="#000" filter="url(#b)" xlink:href="#a"/></g><path d="M8 4c.676.533 1.438.8 2.288.8.85 0 1.616-.267 2.298-.8" stroke="#FFF" stroke-width="2" stroke-linecap="round"/></g></svg>