<svg width="16" height="16" xmlns="http://www.w3.org/2000/svg" xmlns:xlink="http://www.w3.org/1999/xlink"><defs><path id="a" d="M0 0h16v16.001H0z"/></defs><g fill="none" fill-rule="evenodd"><path d="M13.857 8.286c-.114-.171-.286-.285-.486-.285H9.4c-.2 0-.4.114-.485.285l-1.972 3.43a.52.52 0 0 0 0 .57l1.972 3.43c.114.171.285.285.485.285h3.972c.2 0 .4-.114.486-.285l1.972-3.43a.52.52 0 0 0 0-.57l-1.972-3.43zm-.829 6.572H9.742l-1.657-2.857 1.657-2.857h3.286L14.686 12l-1.658 2.857z" fill="#1B62EC"/><g><mask id="b" fill="#fff"><use xlink:href="#a"/></mask><path d="M11.4 10c-1.115 0-2 .887-2 2.001 0 1.114.885 2 2 2 1.114 0 2-.886 2-2 0-1.114-.915-2-2-2zm0 2.858a.842.842 0 0 1-.858-.857c0-.486.372-.857.858-.857.485 0 .857.371.857.857a.86.86 0 0 1-.857.857z" fill="#1B62EC" mask="url(#b)"/><path d="M14.286 0H1.713A1.72 1.72 0 0 0 0 1.714v12.573A1.72 1.72 0 0 0 1.713 16h4.572a.573.573 0 0 0 .571-.571.573.573 0 0 0-.571-.572H1.713a.573.573 0 0 1-.571-.571V1.714c0-.314.257-.571.571-.571h12.573c.314 0 .571.257.571.571v4.6c0 .315.257.572.571.572A.573.573 0 0 0 16 6.315v-4.6A1.72 1.72 0 0 0 14.286 0z" fill="#1B62EC" mask="url(#b)"/></g><path d="M8.57 3.429A.573.573 0 0 0 8 2.857H3.427a.573.573 0 0 0-.572.572V8c0 .314.257.571.572.571a.573.573 0 0 0 .571-.571V4h4a.573.573 0 0 0 .572-.572z" fill="#1B62EC"/></g></svg>