<svg width="16" height="16" xmlns="http://www.w3.org/2000/svg"><path d="M8.56 4.772c0-.299-.278-.54-.612-.54-.334 0-.611.245-.611.54v8.173c0 .298.277.538.611.538.339 0 .612-.244.612-.538V4.772zm2.883 0c0-.299-.273-.54-.612-.54-.338 0-.611.245-.611.54v8.173c0 .298.277.538.611.538.339 0 .612-.244.612-.538V4.772zm-5.762 0c0-.299-.277-.54-.611-.54-.339 0-.612.245-.612.54v8.173c0 .298.278.538.612.538.334 0 .611-.244.611-.538V4.772zM.611 2.123H3.9v-.68c0-.526.536-.94 1.223-.94h5.658c.686 0 1.222.414 1.222.94v.676h3.387c.338 0 .611.24.611.539 0 .298-.273.539-.611.539H14.1V14.56c0 .58-.55 1.053-1.223 1.053H3.015c-.673 0-1.223-.473-1.223-1.053V3.201H.612C.271 3.2 0 2.96 0 2.662c0-.298.273-.539.611-.539zm10.169 0H5.122v-.539h5.658v.54zM3.664 14.54s7.91.025 8.583.025c.672 0 .635-.609.635-.609V3.719c0-.622-.597-.518-.597-.518H3.739s-.72-.038-.72.518l-.01 10.29c0 .519.655.531.655.531z" fill="#1B62EC" fill-rule="evenodd"/></svg>