<svg width="20" height="20" xmlns="http://www.w3.org/2000/svg" xmlns:xlink="http://www.w3.org/1999/xlink"><defs><path d="M9.087 0c1.113.065 2.117.615 2.636 1.837.528 1.24.293 2.396-.617 3.382-.645.698-1.337 1.351-2.014 2.019-.293.29-.764.3-1.019.032-.257-.27-.23-.642.08-.954.664-.666 1.337-1.324 1.995-1.996.99-1.014.55-2.625-.818-2.989-.569-.15-1.115-.046-1.547.357-.697.647-1.352 1.337-2.045 1.986-.147.137-.39.256-.58.244-.51-.031-.768-.649-.415-1.016a44.332 44.332 0 0 1 2.346-2.3C7.585.157 8.23.004 9.087 0z" id="a"/><filter x="-53.9%" y="-53.6%" width="207.8%" height="207.2%" filterUnits="objectBoundingBox" id="b"><feGaussianBlur stdDeviation="4" in="SourceAlpha" result="shadowBlurInner1"/><feOffset in="shadowBlurInner1" result="shadowOffsetInner1"/><feComposite in="shadowOffsetInner1" in2="SourceAlpha" operator="arithmetic" k2="-1" k3="1" result="shadowInnerInner1"/><feColorMatrix values="0 0 0 0 0 0 0 0 0 0.592156863 0 0 0 0 1 0 0 0 0.13120083 0" in="shadowInnerInner1"/></filter><path d="M0 8.917a3.053 3.053 0 0 1 .899-2.196c.66-.671 1.329-1.332 1.997-1.994.318-.315.708-.34.977-.068.279.282.252.637-.08.97-.635.638-1.282 1.268-1.912 1.914-.78.796-.812 1.87-.094 2.593.687.691 1.823.694 2.54-.005.653-.636 1.29-1.291 1.94-1.928.39-.383.985-.246 1.088.268a.776.776 0 0 1-.165.6c-.708.745-1.415 1.497-2.186 2.173-.943.83-2.05.967-3.202.464C.688 11.223.003 10.13 0 8.918z" id="c"/><filter x="-54.3%" y="-53.1%" width="208.6%" height="206.2%" filterUnits="objectBoundingBox" id="d"><feGaussianBlur stdDeviation="4" in="SourceAlpha" result="shadowBlurInner1"/><feOffset in="shadowBlurInner1" result="shadowOffsetInner1"/><feComposite in="shadowOffsetInner1" in2="SourceAlpha" operator="arithmetic" k2="-1" k3="1" result="shadowInnerInner1"/><feColorMatrix values="0 0 0 0 0 0 0 0 0 0.592156863 0 0 0 0 1 0 0 0 0.13120083 0" in="shadowInnerInner1"/></filter><path d="M9.087 0c1.113.065 2.117.615 2.636 1.837.528 1.24.293 2.396-.617 3.382-.645.698-1.337 1.351-2.014 2.019-.293.29-.764.3-1.019.032-.257-.27-.23-.642.08-.954.664-.666 1.337-1.324 1.995-1.996.99-1.014.55-2.625-.818-2.989-.569-.15-1.115-.046-1.547.357-.697.647-1.352 1.337-2.045 1.986-.147.137-.39.256-.58.244-.51-.031-.768-.649-.415-1.016a44.332 44.332 0 0 1 2.346-2.3C7.585.157 8.23.004 9.087 0z" id="e"/><filter x="-53.9%" y="-53.6%" width="207.8%" height="207.2%" filterUnits="objectBoundingBox" id="f"><feGaussianBlur stdDeviation="4" in="SourceAlpha" result="shadowBlurInner1"/><feOffset in="shadowBlurInner1" result="shadowOffsetInner1"/><feComposite in="shadowOffsetInner1" in2="SourceAlpha" operator="arithmetic" k2="-1" k3="1" result="shadowInnerInner1"/><feColorMatrix values="0 0 0 0 0 0 0 0 0 0.592156863 0 0 0 0 1 0 0 0 0.13120083 0" in="shadowInnerInner1"/></filter><path d="M0 8.917a3.053 3.053 0 0 1 .899-2.196c.66-.671 1.329-1.332 1.997-1.994.318-.315.708-.34.977-.068.279.282.252.637-.08.97-.635.638-1.282 1.268-1.912 1.914-.78.796-.812 1.87-.094 2.593.687.691 1.823.694 2.54-.005.653-.636 1.29-1.291 1.94-1.928.39-.383.985-.246 1.088.268a.776.776 0 0 1-.165.6c-.708.745-1.415 1.497-2.186 2.173-.943.83-2.05.967-3.202.464C.688 11.223.003 10.13 0 8.918z" id="g"/><filter x="-54.3%" y="-53.1%" width="208.6%" height="206.2%" filterUnits="objectBoundingBox" id="h"><feGaussianBlur stdDeviation="4" in="SourceAlpha" result="shadowBlurInner1"/><feOffset in="shadowBlurInner1" result="shadowOffsetInner1"/><feComposite in="shadowOffsetInner1" in2="SourceAlpha" operator="arithmetic" k2="-1" k3="1" result="shadowInnerInner1"/><feColorMatrix values="0 0 0 0 0 0 0 0 0 0.592156863 0 0 0 0 1 0 0 0 0.13120083 0" in="shadowInnerInner1"/></filter></defs><g fill="none" fill-rule="evenodd"><rect fill="#3559F2" width="20" height="20" rx="2"/><g transform="translate(4 4.132)"><use fill-opacity=".5" fill="#FFF" xlink:href="#a"/><use fill="#000" filter="url(#b)" xlink:href="#a"/></g><g transform="translate(4 4.132)"><use fill-opacity=".5" fill="#FFF" xlink:href="#c"/><use fill="#000" filter="url(#d)" xlink:href="#c"/></g><g transform="translate(4 4.132)"><use fill-opacity=".5" fill="#FFF" xlink:href="#e"/><use fill="#000" filter="url(#f)" xlink:href="#e"/></g><g transform="translate(4 4.132)"><use fill-opacity=".5" fill="#FFF" xlink:href="#g"/><use fill="#000" filter="url(#h)" xlink:href="#g"/></g><path d="M12.632 8.19c-.041.077-.089.244-.197.354a608.504 608.504 0 0 1-3.911 3.935.64.64 0 0 1-.937-.005c-.264-.266-.256-.632.038-.928 1.286-1.289 2.576-2.575 3.865-3.86.209-.208.454-.296.74-.172.254.11.384.313.402.675z" fill="#FFF"/></g></svg>