<?xml version="1.0" encoding="UTF-8"?>
<svg width="16px" height="16px" viewBox="0 0 16 16" version="1.1" xmlns="http://www.w3.org/2000/svg" xmlns:xlink="http://www.w3.org/1999/xlink">
    <title>链接</title>
    <g id="页面-1" stroke="none" stroke-width="1" fill="none" fill-rule="evenodd">
        <g id="1" transform="translate(-1608.000000, -787.000000)" fill="#A6A6A6" fill-rule="nonzero">
            <path d="M1617.98477,793.165166 C1617.86222,793.042658 1617.73159,792.932224 1617.59699,792.829827 L1617.59675,792.83005 C1617.45821,792.696807 1617.27009,792.614743 1617.0627,792.614743 C1616.63704,792.614743 1616.292,792.959802 1616.292,793.385445 C1616.292,793.573783 1616.35966,793.746292 1616.4719,793.880164 L1616.47187,793.880164 C1616.4719,793.880185 1616.47194,793.880225 1616.47198,793.880246 C1616.52589,793.944554 1616.59004,793.999994 1616.66206,794.043887 C1616.73473,794.103812 1616.80606,794.162823 1616.87276,794.229526 L1616.9363,794.293083 C1617.73506,795.090856 1617.4966,796.465332 1616.69784,797.264119 L1613.28933,800.671613 C1612.49058,801.469386 1611.192,801.469386 1610.39321,800.671613 L1610.32917,800.607529 C1609.53036,799.808782 1609.53036,798.509248 1610.32917,797.712429 L1611.83502,796.207085 C1612.02823,796.053732 1612.15226,795.817036 1612.15226,795.55124 C1612.15226,795.088928 1611.77749,794.71416 1611.31518,794.71416 C1611.14072,794.71416 1610.97878,794.767571 1610.84469,794.858868 C1610.84426,794.857975 1610.84381,794.857123 1610.84337,794.85621 L1610.82732,794.871227 C1610.76804,794.913842 1610.71445,794.963823 1610.66816,795.020156 L1609.10326,796.484488 C1607.63225,797.956511 1607.63225,800.364014 1609.10326,801.833988 L1609.16679,801.897505 C1610.6378,803.367498 1613.04427,803.367498 1614.51528,801.897505 L1617.92277,798.488996 C1619.39175,797.018068 1619.51631,794.697682 1618.04735,793.227688 L1617.98477,793.165166 Z M1622.89653,788.166793 L1622.83299,788.103256 C1621.36201,786.632248 1618.95554,786.632248 1617.48453,788.103256 L1614.07703,791.511745 C1612.60603,792.982754 1612.52502,795.106969 1613.99603,796.578931 L1614.05855,796.640499 C1614.12535,796.707283 1614.19469,796.770252 1614.26547,796.830643 C1614.31671,796.887869 1614.3769,796.936856 1614.44381,796.975595 C1614.44431,796.976001 1614.44484,796.976427 1614.44535,796.976833 L1614.44557,796.97663 C1614.55221,797.037955 1614.67577,797.073224 1614.80764,797.073224 C1615.20948,797.073224 1615.53522,796.747443 1615.53522,796.345644 C1615.53522,796.232228 1615.50924,796.124878 1615.46293,796.029177 L1615.46293,796.029177 C1615.36675,795.813201 1615.18669,795.681723 1615.06215,795.557166 L1614.99961,795.495638 C1614.20086,794.696891 1614.50418,793.536444 1615.30293,792.737697 L1618.71243,789.330182 C1619.50921,788.531395 1620.80823,788.531395 1621.60702,789.330182 L1621.6706,789.392705 C1622.46937,790.191513 1622.46937,791.491554 1621.6706,792.289327 L1620.16968,793.791261 C1619.96549,793.942545 1619.83308,794.185207 1619.83308,794.458815 C1619.83308,794.917373 1620.20483,795.289138 1620.6634,795.289138 C1620.82301,795.289138 1620.97204,795.244006 1621.09858,795.16596 C1621.09954,795.167583 1621.10043,795.169085 1621.10138,795.170729 L1621.12466,795.149239 C1621.19638,795.101226 1621.26007,795.042275 1621.31363,794.974883 L1622.89545,793.515279 C1624.36754,792.04429 1624.36754,789.637781 1622.89653,788.166793 Z" id="形状"></path>
        </g>
    </g>
</svg>