<?xml version="1.0" encoding="UTF-8"?>
<svg width="24px" height="18px" viewBox="0 0 24 18" version="1.1" xmlns="http://www.w3.org/2000/svg" xmlns:xlink="http://www.w3.org/1999/xlink">
    <title>账号</title>
    <g id="页面-1" stroke="none" stroke-width="1" fill="none" fill-rule="evenodd">
        <g id="3策略配置-4CZ流程配置" transform="translate(-234.000000, -201.000000)" fill="#1B62EC" fill-rule="nonzero">
            <g id="编组-5备份-2" transform="translate(43.000000, 182.000000)">
                <g id="编组-4" transform="translate(191.000000, 19.000000)">
                    <path d="M17.1853714,4.94139807 L22.9686857,4.94139807 C23.5378286,4.94139807 23.9986286,4.51946421 23.9986286,3.99832566 C23.9986286,3.47718711 23.5378286,3.05525324 22.9686857,3.05525324 L17.1853714,3.05525324 C16.6162286,3.05525324 16.1554286,3.47718711 16.1554286,3.99832566 C16.1554286,4.51946421 16.6176,4.94139807 17.1853714,4.94139807 L17.1853714,4.94139807 Z M22.9700571,7.86982001 L17.9753143,7.86982001 C17.4061714,7.86982001 16.9453714,8.29175387 16.9453714,8.81289242 C16.9453714,9.33403098 17.4061714,9.75596484 17.9753143,9.75596484 L22.9700571,9.75596484 C23.5392,9.75596484 24,9.33403098 24,8.81289242 C23.9986286,8.29175387 23.5378286,7.86982001 22.9700571,7.86982001 Z M22.9700571,12.9945584 L20.4726857,12.9945584 C19.9035429,12.9945584 19.4427429,13.4164923 19.4427429,13.9376308 C19.4427429,14.4587694 19.9035429,14.8807032 20.4726857,14.8807032 L22.9700571,14.8807032 C23.5392,14.8807032 24,14.4587694 24,13.9376308 C23.9986286,13.4164923 23.5378286,12.9945584 22.9700571,12.9945584 Z M12.6281143,8.28045207 C13.7883429,7.4265383 14.5330286,6.11804102 14.5330286,4.6525743 C14.5330286,2.08706572 12.2537143,0 9.45188571,0 C6.65005714,0 4.37074286,2.08706572 4.37074286,4.6525743 C4.37074286,6.11804102 5.11542857,7.4265383 6.27565714,8.28045207 C2.64137143,9.33654249 0,12.4533278 0,16.1264127 C0,17.1598995 0.917485714,18 2.04617143,18 L16.8603429,18 C17.9890286,18 18.9065143,17.1598995 18.9065143,16.1264127 C18.9037714,12.4533278 16.2624,9.33528673 12.6281143,8.28045207 Z M12.9133714,15.5738803 L5.9904,15.5738803 C5.42125714,15.5738803 4.96045714,15.1519464 4.96045714,14.6308079 C4.96045714,14.1096693 5.42125714,13.6877355 5.9904,13.6877355 L12.9133714,13.6877355 C13.4825143,13.6877355 13.9433143,14.1096693 13.9433143,14.6308079 C13.9433143,15.1519464 13.4811429,15.5738803 12.9133714,15.5738803 Z" id="账号"></path>
                </g>
            </g>
        </g>
    </g>
</svg>