<?xml version="1.0" encoding="UTF-8"?>
<svg width="18px" height="18px" viewBox="0 0 18 18" version="1.1" xmlns="http://www.w3.org/2000/svg" xmlns:xlink="http://www.w3.org/1999/xlink">
    <title>应用</title>
    <g id="页面-1" stroke="none" stroke-width="1" fill="none" fill-rule="evenodd">
        <g id="3策略配置-4CZ流程配置" transform="translate(-1482.000000, -615.000000)" fill="#EC7835" fill-rule="nonzero">
            <g id="编组-5备份-7" transform="translate(1289.000000, 596.000000)">
                <g id="编组-4" transform="translate(193.000000, 19.000000)">
                    <path d="M5.77777778,1.7628866 C6.09876543,1.7628866 6.37345679,1.87422681 6.60185185,2.09690722 C6.83024691,2.31958763 6.94444444,2.59175258 6.94444444,2.91340207 L6.94444444,7.55257732 C6.94444444,7.8742268 6.83024691,8.14948453 6.60185185,8.37835051 C6.37345679,8.60721649 6.09876543,8.72164948 5.77777778,8.72164948 L1.14814815,8.72164948 C0.827160502,8.72164948 0.555555561,8.60721649 0.333333329,8.37835051 C0.111111097,8.14948453 0,7.8742268 0,7.55257732 L0,2.91340207 C0,2.59175259 0.11111111,2.31958764 0.333333329,2.09690722 C0.555555549,1.87422679 0.82716049,1.7628866 1.14814815,1.7628866 L5.77777778,1.7628866 Z M5.77777778,11.0412371 C6.09876543,11.0412371 6.37345679,11.1525773 6.60185185,11.3752577 C6.83024691,11.5979381 6.94444444,11.8701031 6.94444444,12.1917526 L6.94444444,16.8494845 C6.94444444,17.171134 6.83024691,17.443299 6.60185185,17.6659794 C6.37345679,17.8886598 6.09876543,18 5.77777778,18 L1.14814815,18 C0.827160502,18 0.555555561,17.8886598 0.333333329,17.6659794 C0.111111097,17.443299 0,17.171134 0,16.8494845 L0,12.1917526 C0,11.8701031 0.11111111,11.5979381 0.333333329,11.3752577 C0.555555549,11.1525773 0.82716049,11.0412371 1.14814815,11.0412371 L5.77777778,11.0412371 Z M15.0555556,11.0412371 C15.3765432,11.0412371 15.6481482,11.1525773 15.8703704,11.3752577 C16.0925926,11.5979381 16.2037037,11.8701031 16.2037037,12.1917526 L16.2037037,16.8494845 C16.2037037,17.171134 16.0925926,17.443299 15.8703704,17.6659794 C15.6481482,17.8886598 15.3765432,18 15.0555556,18 L10.4259259,18 C10.1049383,18 9.83024693,17.8886598 9.60185187,17.6659794 C9.37345681,17.443299 9.25925927,17.171134 9.25925927,16.8494845 L9.25925927,12.1917526 C9.25925927,11.8701031 9.37345681,11.5979381 9.60185187,11.3752577 C9.83024693,11.1525773 10.1049383,11.0412371 10.4259259,11.0412371 L15.0555556,11.0412371 Z M17.6296296,3.80412371 C17.8765432,4.05154638 18,4.34226803 18,4.67628865 C18,5.01030927 17.8765432,5.29484536 17.6296296,5.52989691 L14.1851852,8.98144329 C13.9382716,9.22886597 13.6512346,9.35257731 13.3240741,9.35257731 C12.9969136,9.35257731 12.7098766,9.22886597 12.462963,8.98144329 L9.01851855,5.52989691 C8.78395064,5.29484536 8.66666669,5.01030927 8.66666669,4.67628865 C8.66666669,4.34226803 8.78395064,4.05154638 9.01851855,3.80412371 L12.462963,0.352577324 C12.7098766,0.117525775 12.9969136,0 13.3240741,0 C13.6512346,0 13.9382716,0.117525775 14.1851852,0.352577324 L17.6296296,3.80412371 Z" id="应用"></path>
                </g>
            </g>
        </g>
    </g>
</svg>