<?xml version="1.0" encoding="UTF-8"?>
<svg width="20px" height="18px" viewBox="0 0 20 18" version="1.1" xmlns="http://www.w3.org/2000/svg" xmlns:xlink="http://www.w3.org/1999/xlink">
    <title>内容</title>
    <g id="页面-1" stroke="none" stroke-width="1" fill="none" fill-rule="evenodd">
        <g id="3策略配置-4CZ流程配置" transform="translate(-1480.000000, -201.000000)" fill="#7D36F4" fill-rule="nonzero">
            <g id="编组-5备份-4" transform="translate(1289.000000, 182.000000)">
                <g id="编组-4" transform="translate(191.000000, 19.000000)">
                    <path d="M16.2,3.375 L16.2,1.125 C16.2,0.504086538 15.5955805,0 14.8510809,0 L1.34891914,0 C0.604419536,0 0,0.504086538 0,1.125 L0,16.875 C0,17.4959135 0.604419536,18 1.34891914,18 L16.1974059,18 L16.1974059,3.375 L16.2,3.375 Z M10.7991353,15.1507209 L3.60057646,15.1507209 C3.10510809,15.1507209 2.70043235,14.6109155 2.70043235,13.9499999 C2.70043235,13.2890843 3.10510809,12.7492788 3.60057646,12.7492788 L10.8017294,12.7492788 C11.2971978,12.7492788 11.7018735,13.2890843 11.7018735,13.9499999 C11.6992794,14.6109155 11.2946037,15.1507209 10.7991353,15.1507209 L10.7991353,15.1507209 Z M10.7991353,10.6507209 L3.60057646,10.6507209 C3.10510809,10.6507209 2.70043235,10.1109155 2.70043235,9.4499999 C2.70043235,8.78908427 3.10510809,8.24927885 3.60057646,8.24927885 L10.8017294,8.24927885 C11.2971978,8.24927885 11.7018735,8.78908427 11.7018735,9.4499999 C11.6992794,10.1109155 11.2946037,10.6507209 10.7991353,10.6507209 L10.7991353,10.6507209 Z M12.5994235,6.15072095 L3.59798239,6.15072095 C3.10251401,6.15072095 2.69783827,5.61091552 2.69783827,4.9499999 C2.69783827,4.28908427 3.10251401,3.74927885 3.59798239,3.74927885 L12.5994235,3.74927885 C13.0948919,3.74927885 13.4995677,4.28908427 13.4995677,4.9499999 C13.4995677,5.61091552 13.0948919,6.15072095 12.5994235,6.15072095 Z M18.8286058,3.74927885 L17.7036058,3.74927885 L17.7036058,18 L18.8286058,18 C19.4473558,18 19.9536058,17.49375 19.9536058,16.875 L19.9536058,4.87427885 C19.9536058,4.25552885 19.4473558,3.74927885 18.8286058,3.74927885 Z" id="内容"></path>
                </g>
            </g>
        </g>
    </g>
</svg>