<?xml version="1.0" encoding="UTF-8"?>
<svg width="24px" height="18px" viewBox="0 0 24 18" version="1.1" xmlns="http://www.w3.org/2000/svg" xmlns:xlink="http://www.w3.org/1999/xlink">
    <title>群组</title>
    <g id="页面-1" stroke="none" stroke-width="1" fill="none" fill-rule="evenodd">
        <g id="3策略配置-4CZ流程配置" transform="translate(-859.000000, -201.000000)" fill="#2EAC4D" fill-rule="nonzero">
            <g id="编组-5备份-3" transform="translate(666.000000, 182.000000)">
                <g id="编组-4" transform="translate(193.000000, 19.000000)">
                    <path d="M15.605625,0 C14.7417857,0 13.9716964,0.243629934 13.295625,0.731157235 C14.0466964,1.78109261 14.4225,2.94361656 14.4225,4.21846168 C14.4225,5.49330679 14.0469643,6.65583075 13.295625,7.70603355 C13.9716964,8.19356085 14.7415179,8.43719078 15.605625,8.43719078 C16.77,8.43719078 17.7650893,8.02454425 18.5914286,7.19978605 C19.4177679,6.37476043 19.8308036,5.38098563 19.8308036,4.21872911 C19.8308036,3.05620515 19.4175,2.06269779 18.5914286,1.23767216 C17.7653571,0.41264653 16.77,0 15.605625,0 Z M16.7325,10.7999465 C17.4835714,11.4000624 18.0752679,12.1218595 18.5070536,12.9656054 C18.9391071,13.8093512 19.17375,14.6998975 19.21125,15.6375117 L19.21125,18 L24,18 L24,15.6375117 L23.94375,15.1874248 C23.86875,14.8124861 23.7372321,14.4375474 23.5494643,14.0623412 C23.2866964,13.5373735 22.9108929,13.0872866 22.4225893,12.7123479 C21.8592857,12.1873802 21.1457143,11.7747337 20.281875,11.4749432 C19.2675,11.1374448 18.0846429,10.9122677 16.7325,10.7999465 L16.7325,10.7999465 Z M12.6198214,4.21872911 C12.6198214,3.35626309 12.3758036,2.57803795 11.8875,1.8843211 C11.3991964,1.19060425 10.7702679,0.674996657 10.0001786,0.337498329 C9.23008929,1.97992536e-05 8.42276786,-0.0842408665 7.57767857,0.0842408665 C6.73258929,0.252990031 6.00964286,0.637288841 5.40857143,1.23740473 C4.8075,1.83752061 4.42258929,2.55931775 4.25357143,3.40306357 C4.08455357,4.2468094 4.16892857,5.05311483 4.50723214,5.82171245 C4.84526786,6.5905775 5.36169643,7.21850625 6.05651786,7.70603355 C6.75133929,8.19356085 7.53080357,8.43719078 8.39464286,8.43719078 C9.55901786,8.43719078 10.5541071,8.02454425 11.3804464,7.19978605 C12.2065179,6.37502786 12.6198214,5.38125306 12.6198214,4.21872911 Z M16.78875,15.6372443 L16.78875,17.9997326 L0,17.9997326 L0,15.6372443 L0.05625,15.1309968 C0.13125,14.7183502 0.281517857,14.3246913 0.507053571,13.9497526 C0.845089286,13.3873446 1.276875,12.8998173 1.80294643,12.4874382 C2.47901786,11.9999109 3.30535714,11.606252 4.28169643,11.306194 C5.44607143,10.9686957 6.81696429,10.7999465 8.394375,10.7999465 C10.873125,10.7999465 12.8450893,11.212593 14.3097321,12.0373512 C15.3613393,12.6374671 16.0936607,13.4247849 16.5069643,14.3998395 C16.6947321,14.849659 16.78875,15.2623056 16.78875,15.6372443 L16.78875,15.6372443 Z" id="群组"></path>
                </g>
            </g>
        </g>
    </g>
</svg>