<?xml version="1.0" encoding="UTF-8"?>
<svg width="25px" height="18px" viewBox="0 0 25 18" version="1.1" xmlns="http://www.w3.org/2000/svg" xmlns:xlink="http://www.w3.org/1999/xlink">
    <title>直播</title>
    <g id="页面-1" stroke="none" stroke-width="1" fill="none" fill-rule="evenodd">
        <g id="3策略配置-4CZ流程配置" transform="translate(-228.000000, -615.000000)" fill="#ADBF2F" fill-rule="nonzero">
            <g id="编组-5备份-5" transform="translate(43.000000, 596.000000)">
                <g id="编组-3" transform="translate(185.000000, 19.000000)">
                    <path d="M19.5285175,0 C19.9789103,0 20.3556104,0.340807682 20.3988481,0.787354838 L20.4029287,0.870967741 L20.4029287,5.44587098 L23.6848855,3.53670969 C23.9552781,3.37954792 24.2893922,3.37836269 24.5609017,3.53360214 C24.8324112,3.68884158 25,3.97681631 25,4.28864516 L25,14.740258 C25,15.0522677 24.8324533,15.3404455 24.5607565,15.4957231 C24.2890598,15.6510008 23.9547299,15.6496544 23.6843026,15.4921935 L20.4029287,13.5783871 L20.4029287,17.1290323 C20.4029071,17.5776514 20.0607736,17.952868 19.6124609,17.9959355 L19.5285175,18 L0.874411229,18 C0.424018386,18 0.0473183164,17.6591923 0.00408060395,17.2126452 L0,17.1290323 L0,0.870967741 C0,0.422348574 0.342155122,0.0471319738 0.790467751,0.00406453427 L0.874411229,0 L19.5285175,0 Z M7,5.79996359 L7,12.2000364 C7,12.4882777 7.15658025,12.7542252 7.40983785,12.8962092 C7.66309544,13.0381932 7.97388657,13.0342591 8.22339804,12.8859109 L13.6080724,9.68587448 C13.8512345,9.54126504 14,9.28092505 14,9 C14,8.71907495 13.8512345,8.45873496 13.6080724,8.31412552 L8.22339804,5.11408911 C7.97388657,4.96574093 7.66309544,4.96180684 7.40983785,5.10379082 C7.15658025,5.2457748 7,5.51172232 7,5.79996359 Z" id="直播"></path>
                </g>
            </g>
        </g>
    </g>
</svg>