<?xml version="1.0" encoding="UTF-8"?>
<svg width="14px" height="14px" viewBox="0 0 14 14" version="1.1" xmlns="http://www.w3.org/2000/svg" xmlns:xlink="http://www.w3.org/1999/xlink">
  <title>板块</title>
  <g id="G" stroke="none" stroke-width="1">
    <g id="1.1默认页内容检索-展开" transform="translate(-817.000000, -140.000000)">
      <g id="筛选区" transform="translate(245.000000, 88.000000)">
        <g id="111" transform="translate(20.000000, 8.000000)">
          <g id="2" transform="translate(0.000000, 37.000000)">
            <g id="icon_档案备份-4" transform="translate(550.770000, 5.343091)">
              <g id="业务模块列表" transform="translate(1.609150, 2.167655)">
                <path
                  d="M5.36068224,7.53584881 L1.07182121,7.53584881 C0.482319543,7.53584881 0,7.04880064 0,6.44984173 L0,1.08600708 C0,0.487048166 0.482319543,0 1.07182121,0 L5.36068224,0 C5.9501839,0 6.43250345,0.487048166 6.43250345,1.08600708 L6.43250345,6.44984173 C6.43250345,7.04722443 5.95176011,7.53584881 5.36068224,7.53584881 Z M12.2376762,1.73855704 L9.53605632,1.73855704 C9.07107506,1.73855704 8.69120902,1.35396238 8.69120902,0.882676288 L8.69120902,0.855880757 C8.69120902,0.384594668 9.07107506,0 9.53605632,0 L12.2376762,0 C12.7026575,0 13.0825235,0.384594668 13.0825235,0.855880757 L13.0825235,0.882676288 C13.0809473,1.35396238 12.6995051,1.73855704 12.2376762,1.73855704 Z M12.2376762,4.61513602 L9.53605632,4.61513602 C9.07107506,4.61513602 8.69120902,4.23054135 8.69120902,3.75925526 L8.69120902,3.73245973 C8.69120902,3.26117364 9.07107506,2.87657897 9.53605632,2.87657897 L12.2376762,2.87657897 C12.7026575,2.87657897 13.0825235,3.26117364 13.0825235,3.73245973 L13.0825235,3.75925526 C13.0809473,4.23054135 12.6995051,4.61513602 12.2376762,4.61513602 Z M12.2376762,7.49486741 L9.53605632,7.49486741 C9.07107506,7.49486741 8.69120902,7.11027274 8.69120902,6.63898665 L8.69120902,6.61219112 C8.69120902,6.14090503 9.07107506,5.75631036 9.53605632,5.75631036 L12.2376762,5.75631036 C12.7026575,5.75631036 13.0825235,6.14090503 13.0825235,6.61219112 L13.0825235,6.63898665 C13.0809473,7.11027274 12.6995051,7.49486741 12.2376762,7.49486741 Z M12.0091261,13.0825235 L1.07182121,13.0825235 C0.482319543,13.0825235 0,12.5954754 0,11.9965165 L0,10.4423757 C0,9.84341681 0.482319543,9.35636865 1.07182121,9.35636865 L12.0091261,9.35636865 C12.5986278,9.35636865 13.0809473,9.84341681 13.0809473,10.4423757 L13.0809473,11.9965165 C13.0809473,12.5954754 12.5986278,13.0825235 12.0091261,13.0825235 Z"
                  id="板块"></path>
              </g>
            </g>
          </g>
        </g>
      </g>
    </g>
  </g>
</svg>
