<?xml version="1.0" encoding="UTF-8"?>
<svg width="16px" height="13px" viewBox="0 0 16 13" version="1.1" xmlns="http://www.w3.org/2000/svg" xmlns:xlink="http://www.w3.org/1999/xlink">
  <title>直播</title>
  <g id="G" stroke="none" stroke-width="1">
    <g id="1.1默认页内容检索-展开" transform="translate(-679.000000, -141.000000)">
      <g id="筛选区" transform="translate(245.000000, 88.000000)">
        <g id="111" transform="translate(20.000000, 8.000000)">
          <g id="2" transform="translate(0.000000, 37.000000)">
            <g id="直播" transform="translate(414.251386, 8.809110)">
              <path
                d="M10.1911039,0 C11.1298584,0 11.8896212,0.759762788 11.8896212,1.69851731 L11.8896212,1.69851731 L11.8896212,4.85777099 L13.9518345,2.24120502 C14.048947,2.19169666 14.1555804,2.16313415 14.2698304,2.16313415 C14.6430472,2.16313415 14.9458098,2.46589677 14.9458098,2.83911358 C14.9458098,2.85244275 14.947714,2.85815525 14.947714,2.86577192 L14.947714,2.86577192 L14.947714,9.36279105 C14.947714,9.37040772 14.9458098,9.37612022 14.9458098,9.38944939 C14.9458098,9.7626662 14.6430472,10.0654288 14.2698304,10.0654288 C14.1593887,10.0654288 14.0565637,10.0349621 13.9632595,9.99116629 L13.9632595,9.99116629 L11.8896212,7.36888781 L11.8896212,10.1911039 C11.8896212,11.1298584 11.1298584,11.8896212 10.1911039,11.8896212 L10.1911039,11.8896212 L1.69851731,11.8896212 C0.759762788,11.8896212 0,11.1298584 0,10.1911039 L0,10.1911039 L0,1.69851731 C0,0.759762788 0.759762788,0 1.69851731,0 L1.69851731,0 Z M1.53059844,5.31025855 C1.11565917,5.31025855 0.77928442,5.6466333 0.77928442,6.06157258 C0.77928442,6.47651186 1.11565917,6.8128866 1.53059844,6.8128866 C1.94553772,6.8128866 2.28191247,6.47651186 2.28191247,6.06157258 C2.28191247,5.6466333 1.94553772,5.31025855 1.53059844,5.31025855 Z">
              </path>
            </g>
          </g>
        </g>
      </g>
    </g>
  </g>
</svg>
