<?xml version="1.0" encoding="UTF-8"?>
<svg width="13px" height="14px" viewBox="0 0 13 14" version="1.1" xmlns="http://www.w3.org/2000/svg" xmlns:xlink="http://www.w3.org/1999/xlink">
  <title>形状</title>
  <g id="菜单调整" stroke="none" stroke-width="1">
    <g id="1.1菜单布局调整" transform="translate(-453.000000, -140.000000)">
      <g id="筛选区" transform="translate(287.000000, 88.000000)">
        <g id="111" transform="translate(20.000000, 8.000000)">
          <g id="2" transform="translate(0.000000, 37.000000)">
            <g id="账号" transform="translate(145.770000, 7.152467)">
              <path
                d="M4.90815293,7.78158554 C2.27208417,7.78158554 0.303720779,9.48960579 0.303720779,11.9700428 L0.303720779,12.2373365 C0.303720779,13.5339149 2.4130593,13.5339149 5.08403188,13.5339149 L7.92060868,13.5339149 C10.4855099,13.5339149 12.7009198,13.5339149 12.7009198,12.2373365 L12.7009198,11.9700428 C12.7009198,9.48960579 10.7324053,7.78158554 8.09648762,7.78158554 L4.90815293,7.78158554 Z M6.36021191,7.12883894 C8.44824551,7.12883894 10.1471998,5.53006309 10.1471998,3.56381508 C10.1471998,1.59862476 8.44824551,0 6.36021191,0 C4.27338709,0 2.57428167,1.59877586 2.57428167,3.56381508 C2.57428167,5.53006309 4.27338709,7.12883894 6.36021191,7.12883894 Z"
                id="形状"></path>
            </g>
          </g>
        </g>
      </g>
    </g>
  </g>
</svg>
