<?xml version="1.0" encoding="UTF-8"?>
<svg width="17px" height="15px" viewBox="0 0 17 15" version="1.1" xmlns="http://www.w3.org/2000/svg" xmlns:xlink="http://www.w3.org/1999/xlink">
  <title>群组</title>
  <g id="G" stroke="none" stroke-width="1">
    <g id="1.1默认页内容检索-展开" transform="translate(-541.000000, -140.000000)">
      <g id="筛选区" transform="translate(245.000000, 88.000000)">
        <g id="111" transform="translate(20.000000, 8.000000)">
          <g id="2" transform="translate(0.000000, 37.000000)">
            <g id="icon_档案备份-2" transform="translate(276.720830, 7.740987)">
              <g id="群组" transform="translate(0.000000, 0.000000)">
                <path
                  d="M14.4254164,8.95558124 L11.8855494,7.96576267 C11.8855494,7.96576267 11.4011653,7.77771279 11.2130025,7.59277611 C11.0920556,7.47389399 11.1007984,7.19344836 11.2078246,6.83518898 C11.3148507,6.47694573 12.6168921,5.02103509 12.6168921,3.69850791 C12.6168921,1.65602618 11.274105,0 9.61785298,0 C9.29716163,0 8.98832624,0.0623445454 8.69862167,0.177306944 C9.03141092,0.404344355 9.33653629,0.681628398 9.60990062,1.00606204 C9.61254602,1.00604591 9.61520757,1.005933 9.61785298,1.005933 C10.1097378,1.005933 10.585363,1.25842441 10.9571237,1.71688673 C11.3787438,2.23685481 11.610943,2.94061431 11.610943,3.69850793 C11.610943,4.30591969 11.1057989,5.10973697 10.7559435,5.64075448 C10.7305218,5.67933873 10.7058582,5.7166003 10.6823237,5.75211975 C10.4620289,6.0847477 10.316483,6.30449409 10.2439601,6.54724265 C10.1807928,6.75863343 10.1417892,6.95655521 10.1265458,7.14084667 C10.0861711,7.62892467 10.2134733,8.02088075 10.507888,8.31021433 C10.81111,8.6082584 11.3177381,8.82440769 11.521483,8.90349574 L14.0601242,9.89284652 C14.0685282,9.89612102 14.0769967,9.89928261 14.0854975,9.90234741 C14.2552715,9.96328861 14.373589,10.1275782 14.373589,10.2368949 L14.373589,10.4849504 C14.3494094,10.4933706 14.3097605,10.5022585 14.254836,10.5022585 L13.4370335,10.5022585 C13.6787336,10.7984153 13.8547017,11.142754 13.9452586,11.5082076 L14.254836,11.5082076 C14.875007,11.5082076 15.3795382,11.1280913 15.3795382,10.5068718 L15.3795382,10.2368949 C15.3795382,9.66759959 14.9604343,9.14764763 14.4254164,8.95558124 Z"
                  id="路径"></path>
                <path
                  d="M11.9290373,10.6199469 L9.0549615,9.49987417 C9.0549615,9.49987417 8.50684561,9.28708004 8.29392244,9.07781848 C8.15705478,8.94328974 8.16695893,8.62593742 8.28806706,8.22054459 C8.40917518,7.81515177 9.88253907,6.16767478 9.88253907,4.6711313 C9.88253907,2.35989856 8.36307409,0.485948745 6.48886618,0.485948745 C4.61480346,0.485948745 3.09546751,2.35988243 3.09546751,4.67126035 C3.09546751,6.10465274 4.40839702,7.81345806 4.57039607,8.12405169 C4.73252417,8.43464532 4.69306886,8.90801227 4.56505686,9.05138053 C4.3728453,9.26677169 3.67053755,9.48267902 3.67053755,9.48267902 L1.07956892,10.637384 C0.474286383,10.854856 0,11.4257643 0,12.069857 L0,12.3753695 C0,13.0783224 0.57090834,13.5084595 1.27255474,13.5084595 L5.61817169,13.5084595 L7.10771448,13.5084595 L11.7360515,13.5084595 C12.4378431,13.5084595 13.0087353,13.0783225 13.0087353,12.3753695 L13.0087353,12.069857 C13.0087353,11.4256514 12.5344489,10.8372898 11.9290373,10.6199469 L11.9290373,10.6199469 Z"
                  id="路径"></path>
              </g>
            </g>
          </g>
        </g>
      </g>
    </g>
  </g>
</svg>
