<?xml version="1.0" encoding="UTF-8"?>
<svg width="16px" height="15px" viewBox="0 0 16 15" version="1.1" xmlns="http://www.w3.org/2000/svg" xmlns:xlink="http://www.w3.org/1999/xlink">
  <title>team01</title>
  <g id="G" stroke="none" stroke-width="1">
    <g id="1.1默认页内容检索-展开" transform="translate(-947.000000, -140.000000)">
      <g id="筛选区" transform="translate(245.000000, 88.000000)">
        <g id="111" transform="translate(20.000000, 8.000000)">
          <g id="2" transform="translate(0.000000, 37.000000)">
            <g id="team01" transform="translate(682.288350, 7.160655)">
              <path
                d="M4.77657769,2.69207687 C4.77657769,4.17886988 5.98186156,5.38415375 7.46865456,5.38415375 C8.95544757,5.38415375 10.1607314,4.17886988 10.1607314,2.69207687 C10.1607314,1.20528387 8.95544757,0 7.46865456,0 C5.98186156,0 4.77657769,1.20528387 4.77657769,2.69207687 L4.77657769,2.69207687 Z"
                id="路径"></path>
              <path
                d="M5.02205582,9.63092545 C4.52291695,8.76356938 3.61464785,8.28079572 2.69001356,8.28079572 C2.2317877,8.28079572 1.77356185,8.39535218 1.34806643,8.64083031 C0.0552149258,9.38544732 -0.378463115,11.0301508 0.357971288,12.3230023 C0.85711016,13.1903584 1.76537926,13.6731321 2.69001356,13.6731321 C3.14823941,13.6731321 3.60646526,13.5585756 4.03196068,13.3130975 C5.32481219,12.5684805 5.76667283,10.9155944 5.02205582,9.63092545 Z M13.5974253,8.64083031 C13.1719299,8.39535218 12.713704,8.28079572 12.2554782,8.28079572 C11.3226613,8.28079572 10.4225748,8.76356938 9.92343591,9.63092545 C9.1788189,10.923777 9.62067954,12.5684805 10.913531,13.3130975 C11.3390265,13.5585756 11.7972523,13.6731321 12.2554782,13.6731321 C13.1882951,13.6731321 14.0883816,13.1903584 14.5875204,12.3230023 C15.3321375,11.0383334 14.8902768,9.38544732 13.5974253,8.64083031 Z M11.535409,7.47071787 C11.7727045,7.42162224 12.01,7.39707443 12.2554782,7.39707443 C12.672791,7.39707443 13.0901038,7.47071787 13.4828688,7.61800475 C13.3273994,5.82601438 12.3863999,4.25495432 11.0035397,3.25667658 C10.8971658,3.92765015 10.6025921,4.54134548 10.168914,5.04048435 C10.8808006,5.65417968 11.3799395,6.50517055 11.535409,7.47071787 L11.535409,7.47071787 Z M2.68183095,7.39707443 C2.92730909,7.39707443 3.16460462,7.42162224 3.40190015,7.47071787 C3.56555224,6.50517054 4.05650851,5.65417968 4.76839509,5.03230175 C4.34289966,4.54134548 4.04014329,3.92765015 3.93376944,3.25667658 C2.55090929,4.25495432 1.60990977,5.82601438 1.45444028,7.61800475 C1.8472053,7.47890047 2.26451812,7.39707443 2.68183095,7.39707443 Z M8.8351495,12.0447938 C8.40965407,12.1920807 7.95142823,12.2820893 7.46865456,12.2820893 C6.9858809,12.2820893 6.52765505,12.2002632 6.10215962,12.0447938 C5.90577711,12.6830369 5.53755992,13.2476366 5.03842103,13.6813147 C5.78303804,14.0086188 6.60948109,14.1968187 7.46865456,14.1968187 C8.33601063,14.1968187 9.15427109,14.0086188 9.8988881,13.6813147 C9.39974922,13.2476366 9.03153203,12.6830369 8.8351495,12.0447938 Z"
                id="形状"></path>
            </g>
          </g>
        </g>
      </g>
    </g>
  </g>
</svg>
