<?xml version="1.0" encoding="UTF-8"?>
<svg width="12px" height="15px" viewBox="0 0 12 15" version="1.1" xmlns="http://www.w3.org/2000/svg" xmlns:xlink="http://www.w3.org/1999/xlink">
  <title>内容</title>
  <g id="菜单调整" stroke="none" stroke-width="1">
    <g id="1.1菜单布局调整" transform="translate(-318.000000, -140.000000)">
      <g id="筛选区" transform="translate(287.000000, 88.000000)">
        <g id="111" transform="translate(20.000000, 8.000000)">
          <g id="2" transform="translate(0.000000, 37.000000)">
            <g id="导航_服务内容管理" transform="translate(9.000000, 6.000000)">
              <path
                d="M7.8373473,6.31898002 C7.5123558,6.31898002 7.24986267,6.58486516 7.24986267,6.91405629 L7.24986267,6.96470108 C7.28736169,7.28123102 7.54985482,7.50913257 7.86234665,7.49647137 L11.2997567,7.49647137 C11.6122486,7.50913257 11.8747417,7.26856982 11.9122407,6.96470108 C11.9372401,6.63550995 11.6997463,6.35696361 11.3872544,6.31898002 L7.8373473,6.31898002 Z M7.8373473,8.68662393 C7.5123558,8.68662393 7.24986267,8.95250907 7.24986267,9.2817002 L7.24986267,9.33234499 C7.28736169,9.63621373 7.54985482,9.87677648 7.86234665,9.86411528 L11.6122486,9.86411528 C12.1997332,9.34500619 11.8372427,8.68662393 11.3372558,8.68662393 L7.8373473,8.68662393 L7.8373473,8.68662393 Z M7.8373473,11.0416066 C7.5123558,11.0416066 7.24986267,11.3074918 7.24986267,11.6366829 L7.24986267,11.6873277 C7.28736169,12.0038576 7.54985482,12.2317592 7.86234665,12.219098 L11.2997567,12.219098 C11.6122486,12.2317592 11.8747417,11.9911964 11.9122407,11.6873277 C11.9372401,11.3581366 11.6997463,11.0795902 11.3872544,11.0416066 L7.8373473,11.0416066 L7.8373473,11.0416066 Z M13.2122067,15.1818182 L5.62490518,15.1818182 C5.18741662,15.1818182 4.83742578,14.8146435 4.83742578,14.3715015 L4.83742578,4.17923766 C4.83742578,3.73609575 5.18741662,3.36892103 5.62490518,3.36892103 L13.2122067,3.36892103 C13.6496953,3.36892103 14.0121858,3.73609575 13.9996861,4.17923766 L13.9996861,14.3715015 C13.9996861,14.8146435 13.8996887,15.1818182 13.4622002,15.1818182 L13.2122067,15.1818182 Z M3.56245913,2.31804164 L10.1747862,2.31804164 C10.2622839,2.31804164 10.3372819,2.38134763 10.3497816,2.48263721 L10.3497816,2.78650595 C10.3497816,2.90045672 10.449779,2.98908511 10.5497763,2.97642391 L11.5372505,2.97642391 C11.6497476,2.97642391 11.7372453,2.88779553 11.7372453,2.78650595 L11.7372453,1.77361016 C11.7247456,1.33046825 11.3622551,0.975954723 10.9122669,1.00127712 L2.81247875,1.00127712 C2.37499019,0.98861592 2.01249967,1.33046825 2,1.77361016 L2,11.5607157 C2.01249967,12.0038576 2.37499019,12.34571 2.81247875,12.3330488 L3.87495095,12.3330488 C3.98744801,12.3330488 4.07494572,12.2444204 4.07494572,12.1431308 L4.07494572,11.2062022 C4.07494572,11.0922514 3.97494834,11.003623 3.87495095,11.0162842 L3.54995946,11.0162842 C3.46246174,11.0162842 3.38746371,10.9529783 3.37496403,10.8516887 L3.37496403,2.48263721 C3.38746371,2.39400883 3.46246174,2.31804164 3.56245913,2.31804164"
                id="内容"></path>
            </g>
          </g>
        </g>
      </g>
    </g>
  </g>
</svg>
