<svg width="16" height="16" xmlns="http://www.w3.org/2000/svg" xmlns:xlink="http://www.w3.org/1999/xlink"><defs><path id="a" d="M0 0h16v16H0z"/></defs><g fill="none" fill-rule="evenodd"><mask id="b" fill="#fff"><use xlink:href="#a"/></mask><path d="M5.022.001l.057.057-.057.916 5.9.057L10.98 0l1.38.057-.057.916h1.656c1.04 0 1.904.763 2.027 1.76l.014.168.001.074v11.022c0 .531-.215 1.04-.599 1.417a2.06 2.06 0 0 1-1.242.575l-.201.01H2.042c-.541 0-1.06-.21-1.443-.586a1.986 1.986 0 0 1-.589-1.218L0 13.998V2.976C0 1.924.825 1.064 1.874.98l.17-.008 1.598.057L3.7 0h1.324l-.001.001zm7.337 2.326l-.057 1.03-1.38-.058.057-.914-5.901-.057-.057 1.028L3.64 3.3v-.916H2.042a.615.615 0 0 0-.355.114l-.073.06a.587.587 0 0 0-.17.326l-.006.092v11.023c0 .156.063.307.176.418a.62.62 0 0 0 .333.167l.095.007h11.916c.16 0 .314-.063.428-.174a.587.587 0 0 0 .17-.324l.006-.094V2.976a.585.585 0 0 0-.176-.418.61.61 0 0 0-.333-.166l-.095-.008-1.6-.057zm-1.143 3.858l.935.917-4.77 4.673-2.786-2.728.938-.916L7.38 9.94l3.834-3.757h.001z" fill="#FFF" mask="url(#b)"/></g></svg>