<svg width="14" height="14" xmlns="http://www.w3.org/2000/svg"><g fill-rule="nonzero" fill="none"><path d="M12.297 0C13.23 0 14 .77 14 1.703v10.594C14 13.23 13.23 14 12.297 14H1.703C.77 14 0 13.23 0 12.297V1.703C0 .77.77 0 1.703 0z" fill="#1B62EC"/><path d="M10.333 6.333H7.667V3.667A.655.655 0 0 0 7 3a.655.655 0 0 0-.667.667v2.666H3.667A.655.655 0 0 0 3 7c0 .378.289.667.667.667h2.666v2.666c0 .378.29.667.667.667a.655.655 0 0 0 .667-.667V7.667h2.666A.655.655 0 0 0 11 7a.655.655 0 0 0-.667-.667z" fill="#FFF"/></g></svg>