<?xml version="1.0" encoding="UTF-8"?>
<svg width="16px" height="16px" viewBox="0 0 16 16" version="1.1" xmlns="http://www.w3.org/2000/svg" xmlns:xlink="http://www.w3.org/1999/xlink">
  <g id="任务执行系统" stroke="none" stroke-width="1" fill-rule="evenodd">
    <g id="1处置管理-2我的任务-2已退回（发起人）" transform="translate(-1775.000000, -301.000000)" fill-rule="nonzero">
      <g id="编组-13" transform="translate(345.000000, 220.000000)">
        <g id="编组-4" transform="translate(33.000000, 73.000000)">
          <g id="编组-15备份" transform="translate(1382.000000, 0.000000)">
            <g id="发起" transform="translate(15.289593, 8.000000)">
              <path
                d="M12.7568792,16 L10.0654483,16 C9.78516122,16 9.55890541,15.7737442 9.55890541,15.4934572 C9.55890541,15.2131701 9.78516122,14.9869143 10.0654483,14.9869143 L12.7568792,14.9869143 C13.5943634,14.9869143 14.2765078,14.3047699 14.2765078,13.4672858 L14.2765078,2.53271423 C14.2765078,1.69523005 13.5943634,1.01308569 12.7568792,1.01308569 L3.3014128,1.01308569 C2.46392863,1.01308569 1.78178426,1.69523005 1.78178426,2.53271423 L1.78178426,6.8315745 C1.78178426,7.11186154 1.55552846,7.33811735 1.27524142,7.33811735 C0.994954378,7.33811735 0.768698574,7.11186154 0.768698574,6.8315745 L0.768698574,2.53271423 C0.768698574,1.13465597 1.90335455,0 3.3014128,0 L12.7568792,0 C14.1549375,0 15.2895935,1.13465597 15.2895935,2.53271423 L15.2895935,13.4672858 C15.2895935,14.865344 14.1515605,16 12.7568792,16 Z"
                id="路径"></path>
              <path
                d="M4.79064876,16 L4.7670101,16 C4.53400039,15.9898691 4.34151411,15.8210215 4.29423678,15.5947657 L3.65599279,12.4744618 C3.62897717,12.3360068 3.65936974,12.1907978 3.7404166,12.0759814 L5.37486151,9.80666948 C5.53834005,9.58053263 5.85391702,9.52919475 6.08064454,9.6918531 C6.30690035,9.85394681 6.35755463,10.1713803 6.19546092,10.3976361 L4.68934019,12.4879696 L4.88182648,13.4368932 L5.01690457,12.9911355 C5.06755885,12.8222879 5.20263694,12.6939637 5.37148456,12.6500633 C5.54033217,12.6061629 5.7226876,12.6500633 5.84763483,12.7716336 L7.20179271,14.0514985 L8.82948372,6.34191642 L1.63319836,10.8062474 L3.07853395,11.3735753 C3.33855927,11.4748839 3.46688346,11.7686788 3.36557489,12.0287041 C3.26426632,12.2887294 2.96709452,12.4170536 2.71044615,12.315745 L0.32294087,11.3803293 C0.143962398,11.3094133 0.0223921153,11.1439426 0.00213040148,10.9548333 C-0.0153795758,10.7641996 0.0760770327,10.5799798 0.238517063,10.478683 L9.30901094,4.85943436 C9.48123551,4.75137189 9.70073741,4.75812579 9.86620807,4.87631912 C10.0316787,4.9911355 10.1127256,5.19712959 10.0722022,5.39636978 L8.01563821,15.149008 C7.97849174,15.3279865 7.8467906,15.4731954 7.67118908,15.5272267 C7.49558756,15.5812579 7.30647823,15.5373575 7.17140014,15.4124103 L5.75645712,14.0717602 L5.27692989,15.6420431 C5.20939085,15.8547911 5.01015066,16 4.79064876,16 L4.79064876,16 Z"
                id="路径"></path>
            </g>
          </g>
        </g>
      </g>
    </g>
  </g>
</svg>
