<svg class="icon" viewBox="0 0 1024 1024" xmlns="http://www.w3.org/2000/svg" width="16" height="16"><defs><style>@font-face{font-family:feedback-iconfont;src:url(//at.alicdn.com/t/font_1031158_u69w8yhxdu.woff2?t=1630033759944) format(&quot;woff2&quot;),url(//at.alicdn.com/t/font_1031158_u69w8yhxdu.woff?t=1630033759944) format(&quot;woff&quot;),url(//at.alicdn.com/t/font_1031158_u69w8yhxdu.ttf?t=1630033759944) format(&quot;truetype&quot;)}</style></defs><path d="M708.58 544.76H315.42c-18.09 0-32.76-14.66-32.76-32.76 0-18.1 14.68-32.76 32.76-32.76h393.16c18.09 0 32.76 14.66 32.76 32.76 0 18.1-14.67 32.76-32.76 32.76z" fill="#bfbfbf"/><path d="M872.39 927H151.61C121.49 927 97 902.5 97 872.39V151.61C97 121.5 121.49 97 151.61 97H872.4c30.12 0 54.61 24.5 54.61 54.61V872.4c-.01 30.1-24.5 54.6-54.62 54.6zm-709.86-65.53h698.95V162.53H162.53v698.94z" fill="#bfbfbf"/></svg>