<svg width="16" height="16" xmlns="http://www.w3.org/2000/svg"><g fill="#FFF" fill-rule="evenodd"><path d="M14.216 0H1.783C.8 0 0 .793 0 1.769V14.23c0 .976.8 1.769 1.784 1.769h12.433C15.2 16 16 15.207 16 14.231V1.77A1.776 1.776 0 0 0 14.216 0zM1.145 14.231V1.77c0-.35.286-.633.638-.633h12.433c.352 0 .638.284.638.633v8.534l-2.403-2.38a.78.78 0 0 0-1.068-.005l-3.625 3.429.792.822 2.796-2.644v5.34H1.783a.637.637 0 0 1-.638-.634zm13.07.633H12.49V9.568l2.366 2.342v2.321c0 .35-.287.633-.64.633z"/><path d="M3 5.098h10V4H3v1.098zM3 8.61h5.447V7.512H3V8.61zM3 12h3.496v-1.098H3V12z"/></g></svg>