<?xml version="1.0" encoding="UTF-8"?>
<svg width="14px" height="14px" viewBox="0 0 14 14" version="1.1" xmlns="http://www.w3.org/2000/svg" xmlns:xlink="http://www.w3.org/1999/xlink">
    <title>环图</title>
    <g id="页面-1" stroke="none" stroke-width="1"  fill-rule="evenodd">
        <g id="画板" transform="translate(-429.000000, -144.000000)" fill-rule="nonzero">
            <path d="M435.338182,144 L435.338182,146.570909 C433.429091,146.889102 431.532739,148.747261 431.532739,151 C431.532739,153.252716 433.429091,155.110898 435.338182,155.429091 L435.338182,155.429091 L435.338182,158 C432.156364,157.681829 429,154.665455 429,151 C429,147.334545 432.156364,144.31817 435.338182,144 L435.338182,144 Z M439.512727,153.761807 L441.689102,155.047273 C440.543648,156.68908 438.52,157.80908 436.610909,158 L436.610909,158 L436.610909,155.429091 C437.883636,155.250909 438.812716,154.652693 439.512727,153.761807 L439.512727,153.761807 Z M436.610886,144 C440.429068,144.318171 442.987261,147.334545 442.987261,151 C442.987261,152.043636 442.783625,153.049102 442.376352,153.939989 L442.376352,153.939989 L440.161807,152.654545 C440.365443,152.145455 440.454545,151.585455 440.454545,151 C440.454545,148.747261 439.156364,146.889102 436.610886,146.570909 L436.610886,146.570909 Z" id="11"></path>
        </g>
    </g>
</svg>