<svg width="18" height="16" xmlns="http://www.w3.org/2000/svg"><path d="M17.31 12.754H.69a.69.69 0 0 1-.69-.689V.69A.69.69 0 0 1 .69 0h16.62a.69.69 0 0 1 .69.69v11.375a.69.69 0 0 1-.69.69zM1.298 11.457h15.406V1.297H1.297v10.16zm.512 2.25h14.382v1.298H1.809v-1.297zm5.82-9.682h7.356v1.298H7.63V4.025zm0 3.587h7.356v1.297H7.63V7.612zM3.653 6.407L2.466 4.903l1.019-.804.384.488 1.885-1.48.801 1.02-2.902 2.28zm0 3.76L2.466 8.661l1.019-.803.384.487 1.885-1.48.801 1.02-2.902 2.28z" fill="#FFF" fill-rule="nonzero"/></svg>