<svg width="16" height="16" xmlns="http://www.w3.org/2000/svg" xmlns:xlink="http://www.w3.org/1999/xlink"><defs><path id="a" d="M0 0h16v14H0z"/></defs><g fill="none" fill-rule="evenodd"><g><mask id="b" fill="#fff"><use xlink:href="#a"/></mask><path d="M15.287 0H.712a.715.715 0 0 0-.713.715v12.57c0 .394.319.714.713.715h4.284v-1H1V1h14v12h-4.037v1h4.325a.715.715 0 0 0 .713-.715V.715A.715.715 0 0 0 15.287 0z" fill="#929AB1" mask="url(#b)"/></g><path d="M12.522 9.398a.48.48 0 0 0 .442-.32.549.549 0 0 0-.103-.563l-3.993-4.32a.504.504 0 0 0-.026-.044.47.47 0 0 0-.69 0 .487.487 0 0 0-.027.044l-3.98 4.306a.546.546 0 0 0-.13.503c.044.18.175.322.342.37a.454.454 0 0 0 .464-.142l3.192-3.454v9.705c0 .286.214.517.478.517s.478-.231.478-.517V5.766l3.216 3.48c.09.097.21.152.337.152z" fill="#929AB1"/></g></svg>