<svg width="18" height="18" xmlns="http://www.w3.org/2000/svg"><path d="M10.47 12.9a.3.3 0 0 1-.3-.295l-.01-.617a.297.297 0 0 1 .3-.294h7.242c.163 0 .296.131.298.294v.618a.296.296 0 0 1-.298.294c-.11-.002-2.52-.002-7.233 0zm-.015 2.704a.3.3 0 0 1-.3-.294l.006-.617a.297.297 0 0 1 .3-.294h7.24c.164 0 .297.131.299.294l-.006.615a.3.3 0 0 1-.298.296h-7.241zM10.461 18a.3.3 0 0 1-.3-.294v-.608a.297.297 0 0 1 .3-.294h7.24c.164 0 .297.13.299.294v.606a.301.301 0 0 1-.298.296H10.46zm-1.607-5.237c-2.109 0-3.826-1.689-3.826-3.765s1.715-3.765 3.826-3.765c2.11 0 3.827 1.689 3.827 3.765 0 .44-.077.875-.229 1.286h-1.471c.244-.384.374-.83.374-1.286 0-1.354-1.123-2.457-2.5-2.457-1.376 0-2.499 1.103-2.499 2.457 0 1.356 1.12 2.46 2.498 2.46v1.305zM9 17.1v.606c-.002.172-.129.292-.303.292H7.198c-.594.006-.869-.606-.902-1.198l-.306-1.2a7.353 7.353 0 0 1-1.539-.843l-1.248.503a1.13 1.13 0 0 1-1.485-.43L.151 12.17c-.3-.51-.139-1.168.364-1.48l1.07-.817a6.527 6.527 0 0 1 0-1.747L.518 7.309A1.09 1.09 0 0 1 .15 5.836L1.716 3.17c.304-.511.952-.7 1.482-.432l1.252.503a7.2 7.2 0 0 1 1.538-.87l.183-1.32A1.108 1.108 0 0 1 7.29.002h3.128c.6 0 1.09.458 1.119 1.048l.183 1.321c.546.228 1.064.52 1.54.871l1.252-.5a1.134 1.134 0 0 1 1.482.428l1.56 2.664c.301.51.141 1.167-.361 1.48-.323.275-.654.539-.994.792 0 .387.007 1.086.021 2.101h-1.522l-.017-2.634 1.633-1.243-1.395-2.38-1.89.798-.308-.259a5.944 5.944 0 0 0-1.833-1.036l-.377-.135-.278-2.01H7.475l-.28 2.01-.376.135A6.03 6.03 0 0 0 4.985 4.49l-.307.255-1.905-.766-1.38 2.346 1.633 1.243-.072.39c-.065.342-.098.69-.1 1.038.002.348.035.699.098 1.04l.07.39-1.63 1.243 1.399 2.38 1.717-.84 2.69 1.493L7.5 16.8c.772-.002 1.172-.002 1.197 0 .039.003.303.149.303.3z" fill="#FFF" fill-rule="nonzero"/></svg>