<svg width="18" height="18" xmlns="http://www.w3.org/2000/svg"><path d="M15.428 0H2.573A2.572 2.572 0 0 0 0 2.572v12.855A2.57 2.57 0 0 0 2.57 18h12.857a2.572 2.572 0 0 0 2.572-2.573V2.572c0-1.42-1.151-2.571-2.571-2.572h.001-.001zm1.289 15.431a1.281 1.281 0 0 1-1.286 1.285H2.577a1.281 1.281 0 0 1-.912-.376 1.275 1.275 0 0 1-.38-.909V2.572c0-.71.578-1.288 1.29-1.288H15.43a1.287 1.287 0 0 1 1.287 1.288v12.86zm-2.088-9.645H9.486a.643.643 0 0 0 0 1.285h5.143a.643.643 0 0 0 0-1.285zm0 5.145H9.486a.642.642 0 1 0 0 1.284h5.143a.642.642 0 1 0 0-1.284zm-9-1.608a2.25 2.25 0 1 0 0 4.5 2.25 2.25 0 0 0 0-4.499zm.682 2.933a.965.965 0 1 1-1.38-1.351.965.965 0 0 1 1.38 1.351zm.792-7.567L4.987 6.806l-.834-.83a.642.642 0 0 0-.908.909L4.531 8.17a.642.642 0 0 0 .907 0L8.01 5.599a.643.643 0 0 0-.907-.91z" fill="#FFF" fill-rule="nonzero"/></svg>