<svg width="16" height="16" xmlns="http://www.w3.org/2000/svg" xmlns:xlink="http://www.w3.org/1999/xlink"><defs><path id="a" d="M0 0h16v16.001H0z"/></defs><g fill="none" fill-rule="evenodd"><g><mask id="b" fill="#fff"><use xlink:href="#a"/></mask><path d="M8 0C3.587 0-.002 3.59-.002 8c0 4.412 3.589 8.001 8 8.001 4.412 0 8.001-3.589 8.001-8C16 3.589 12.411 0 8 0zm0 14.77A6.778 6.778 0 0 1 1.23 8 6.778 6.778 0 0 1 8 1.23 6.778 6.778 0 0 1 14.77 8 6.778 6.778 0 0 1 8 14.77z" fill="#2878FF" mask="url(#b)"/></g><path d="M7.179 3.487a.615.615 0 0 1 1.23 0V7.59h2.873a.615.615 0 0 1 0 1.231H7.974a.795.795 0 0 1-.795-.795V3.487z" fill="#2878FF"/></g></svg>