<svg width="14" height="14" xmlns="http://www.w3.org/2000/svg" xmlns:xlink="http://www.w3.org/1999/xlink"><defs><path id="a" d="M0 0h14v14H0z"/></defs><g fill="none" fill-rule="evenodd"><mask id="b" fill="#fff"><use xlink:href="#a"/></mask><path d="M12.244 14H1.749c-.193 0-.508-.003-.816-.003a.935.935 0 0 1-.928-.926c-.003-.31-.006-.627-.006-.82V1.752c0-.185.006-.512.016-.83a.934.934 0 0 1 .92-.91c.3-.004.612-.007.814-.007h10.495c.19 0 .495-.003.8-.006a.932.932 0 0 1 .944.926c.003.315.006.637.006.83v10.497c0 .191.003.49.006.79a.933.933 0 0 1-.909.945c-.321.003-.65.012-.847.012zm.875-12.247c0-.24-.006-.868-.006-.868S12.487.88 12.244.88H1.749c-.243 0-.87.005-.87.005s-.004.627-.004.868V12.25l.003.861s.612.016.871.016h10.496c.242 0 .868-.006.868-.006s.006-.627.006-.868v-10.5zM10.933 12.25H3.06a.436.436 0 0 1 0-.873h7.87c.243 0 .436.197.436.437a.434.434 0 0 1-.433.436zm-1.45-7.756a.443.443 0 0 1-.31.753.437.437 0 0 1-.31-.129L7.433 3.39v6.665a.438.438 0 0 1-.744.309.436.436 0 0 1-.127-.31V3.369L5.12 5.114a.438.438 0 0 1-.62 0 .443.443 0 0 1 0-.623l2.161-2.617a.434.434 0 0 1 .334-.124.432.432 0 0 1 .333.124l2.154 2.62z" fill="#1B62EC" mask="url(#b)"/></g></svg>