<svg width="17" height="17" xmlns="http://www.w3.org/2000/svg">
  <path
    d="M13.884 12.306l1.957-1.957a.578.578 0 0 0-.818-.818l-1.955 1.958-1.96-1.958a.578.578 0 0 0-.817.818l1.957 1.957-1.955 1.958a.578.578 0 0 0 .817.818l1.958-1.958 1.957 1.957a.579.579 0 0 0 .818-.817l-1.96-1.958zm-5.64 3.387H2.167V2.182h12.6v4.256a.623.623 0 0 0 1.244 0V1.56a.623.623 0 0 0-.622-.623H1.544a.623.623 0 0 0-.622.623v14.755c0 .343.279.622.622.622h6.7a.623.623 0 0 0 0-1.244zm4.952-10.508a.623.623 0 0 0-.623-.623h-8.01a.623.623 0 0 0 0 1.245h8.009c.345 0 .624-.28.624-.622zm-4.62 3.67a.623.623 0 0 0-.623-.621h-3.39a.623.623 0 0 0 0 1.244h3.39c.343 0 .622-.28.622-.622zm-4.013 3.051a.623.623 0 0 0 0 1.245h1.893a.623.623 0 0 0 0-1.245H4.563z"
    fill-rule="nonzero" />
</svg>
