<?xml version="1.0" encoding="UTF-8"?>
<svg width="16px" height="16px" viewBox="0 0 16 16" version="1.1" xmlns="http://www.w3.org/2000/svg" xmlns:xlink="http://www.w3.org/1999/xlink">
    <title>物流部人员</title>
    <defs>
        <linearGradient x1="0%" y1="99.9915008%" x2="100%" y2="0.00849924696%" id="linearGradient-1">
            <stop stop-color="#3559F2" offset="0%"></stop>
            <stop stop-color="#4162EE" offset="100%"></stop>
        </linearGradient>
    </defs>
    <g id="页面" stroke="none" stroke-width="1" fill="none" fill-rule="evenodd">
        <g id="4任务发起-我的任务" transform="translate(-15.000000, -364.000000)" fill="#2878FF">
            <g id="编组-2" transform="translate(14.998640, 321.000000)">
                <g id="icon-物流部人员" transform="translate(0.000000, 43.000000)">
                    <g id="编组">
                        <path d="M14.5437047,3.39877223 C13.5900493,2.05790287 12.2526273,1.03721174 10.707493,0.471374134 C9.14924796,-0.0984903089 7.39355993,-0.149608758 5.80007723,0.306900245 C4.27223735,0.744460746 2.87111897,1.64917899 1.85933811,2.87655868 C1.32562667,3.52358178 0.892929991,4.24767405 0.576036726,5.02420468 C0.262812657,5.78666375 0.0859305514,6.59786992 0.022569797,7.41907606 C-0.103547637,9.05967626 0.302144651,10.740858 1.15773857,12.1461344 C1.487653,12.6876767 1.88005564,13.1885928 2.32682503,13.6386365 C2.37960329,13.7391284 2.4630775,13.8203139 2.56505431,13.8702243 C3.18154639,14.4449657 3.8868375,14.9163293 4.6536324,15.2661495 C5.43582001,15.62069 6.26843671,15.851204 7.12150246,15.9494365 C7.95769886,16.0475794 8.80787847,15.9997719 9.63253032,15.8327701 C11.0523527,15.5453658 12.3901103,14.844495 13.4508212,13.8569358 C13.5450345,13.8058173 13.6235195,13.7299562 13.6779534,13.6374956 C13.7128331,13.6017686 13.7475339,13.5659297 13.7816977,13.5301804 C14.889258,12.369154 15.6528312,10.8695826 15.8958707,9.28052585 C15.9630796,8.85685794 15.9982949,8.42882762 16.0013601,7.99992481 C15.9986529,6.36594652 15.4949886,4.73145369 14.5437047,3.39877223 Z M12.3421199,13.3917691 C12.3080456,13.4196437 12.2737923,13.4472499 12.2392705,13.4745206 L12.2662749,13.4540732 L12.2345498,13.4781 L12.2315741,13.4807398 C12.2136533,13.4950574 12.1791315,13.5203146 12.1827112,13.5165562 C12.0394783,13.6231779 11.8929118,13.7246318 11.7429446,13.8207614 C11.4056918,14.0359958 11.0517486,14.22387 10.6845828,14.3827511 C10.1217639,14.6125716 9.53299219,14.7731976 8.93144536,14.8609379 C8.31329767,14.9369556 7.68816954,14.9369556 7.06993235,14.8609379 C6.46742348,14.7731976 5.87777917,14.6123255 5.31415484,14.3820576 C4.99166828,14.242483 4.67949575,14.0803804 4.37982981,13.8970475 C4.21822857,13.7978531 4.0604755,13.6927303 3.90657062,13.5814778 C3.8745099,13.558234 3.84287427,13.5349902 3.81114914,13.5113214 L3.77539685,13.4844982 C3.70574924,13.4294424 3.63670571,13.3735812 3.56880321,13.3162659 C3.52231181,13.2769371 3.47633499,13.2366464 3.43062665,13.1961991 C3.45143367,13.1406958 3.47293427,13.0854834 3.49530742,13.0305171 C3.59685913,12.7997123 3.71422867,12.5762676 3.84645397,12.3616372 C3.91679515,12.2475883 3.99143197,12.1362686 4.07018545,12.027723 C4.0888894,12.0017723 4.10792895,11.9760006 4.12725935,11.9503854 C4.16936561,11.8966495 4.2121207,11.8451731 4.25615105,11.7937862 C4.42842429,11.5921088 4.61508346,11.4031607 4.81478618,11.228575 C4.86452169,11.1849509 4.91504025,11.1422217 4.96634188,11.1006335 L5.02008218,11.0584188 C5.02453444,11.0550184 5.0289867,11.051439 5.03361794,11.0481951 C5.14286602,10.9665846 5.25491074,10.889068 5.37002059,10.8154887 C5.61026345,10.6631625 5.86187187,10.529561 6.12274277,10.4160266 C6.51986614,10.2557585 6.93437345,10.1426044 7.35780764,10.0788909 C7.78587308,10.0281975 8.21839077,10.0281975 8.64645621,10.0788909 C9.07154602,10.1424254 9.48770894,10.2555795 9.8865103,10.4160266 C10.1151191,10.5159145 10.3367699,10.631261 10.5498294,10.7613054 C10.6628361,10.8303433 10.7731358,10.9034751 10.8807059,10.9805666 C10.9076208,10.9996941 10.9344462,11.0191795 10.960936,11.0388439 L10.9863742,11.0580832 L11.0181889,11.0834076 C11.0506075,11.1093807 11.0824222,11.1356669 11.1141473,11.1623335 C11.3170717,11.3332504 11.507333,11.5186862 11.6833425,11.7171645 C11.7275743,11.766963 11.7708215,11.8175669 11.8130397,11.8689538 C11.8309606,11.8913251 11.8499106,11.914032 11.8680105,11.9369402 C11.8702031,11.9394682 11.8722838,11.9421751 11.8742974,11.9447926 C11.9547959,12.0521972 12.0321399,12.1624878 12.1050316,12.2755524 C12.2598986,12.5169389 12.3957036,12.7700927 12.511149,13.0325976 C12.5329181,13.0859085 12.5538817,13.1396444 12.5739057,13.1936711 C12.5626296,13.2035368 12.551801,13.2135816 12.5404355,13.2235368 C12.4752401,13.2808745 12.4089932,13.3368922 12.3417843,13.3917691 L12.3421199,13.3917691 Z M5.73313677,7.31200695 C5.65248158,7.10699625 5.59399817,6.89404372 5.55860385,6.67661694 C5.53484357,6.45404475 5.53484357,6.22954863 5.55860385,6.00695407 C5.59399817,5.78963914 5.65248158,5.57666424 5.73313677,5.37174302 C5.80061419,5.22292905 5.87979276,5.07968554 5.97006841,4.94353373 C5.99620025,4.90413785 6.02380871,4.86550259 6.05135005,4.82749373 L6.05998609,4.81552508 C6.0631407,4.81228124 6.06602684,4.80930585 6.06821941,4.8067779 C6.13043913,4.73091678 6.19641754,4.65821001 6.26597566,4.58874708 C6.33258052,4.52223717 6.40213864,4.45888162 6.47469476,4.39868041 C6.48429284,4.39062674 6.49418177,4.38277441 6.50404833,4.37489971 C6.53980062,4.3494859 6.57456849,4.32404972 6.61137232,4.29975447 C6.75042143,4.20668981 6.89698792,4.12514638 7.0493938,4.05619799 C7.25433184,3.97554941 7.4674137,3.9170708 7.68474645,3.88167938 C7.90744877,3.85783156 8.1319633,3.85783156 8.35455375,3.88167938 C8.57190888,3.9170708 8.78478938,3.97554941 8.98974979,4.05619799 C9.13866546,4.12358038 9.28180886,4.20284194 9.41806133,4.29311019 C9.45730383,4.31923988 9.49594226,4.34684608 9.53404373,4.37438517 L9.54583437,4.38295338 L9.55482838,4.39116365 C9.63060623,4.45346776 9.70322947,4.51910519 9.77263097,4.58805357 C9.83921346,4.65489906 9.90266371,4.72454095 9.96289222,4.79691215 C9.97092418,4.80659893 9.97862054,4.81648705 9.98656301,4.82626331 C10.0119118,4.86210215 10.037529,4.89677769 10.0617368,4.93366798 C10.1548091,5.07270569 10.2362473,5.21917067 10.3052909,5.37156405 C10.3860579,5.57675373 10.4446085,5.78988522 10.4800028,6.00749098 C10.5050831,6.22963811 10.5050831,6.45395526 10.4800028,6.6761024 C10.4446085,6.89368578 10.3860579,7.10690676 10.3052909,7.31200695 C10.2380148,7.46093278 10.1588139,7.60406444 10.0683816,7.74012676 C10.0422498,7.77945553 10.0151559,7.8181579 9.98709997,7.85625624 L9.97844156,7.8680683 C9.97546593,7.87128977 9.97240081,7.87453361 9.9704096,7.87697208 C9.9081675,7.95274372 9.84254706,8.025361 9.77350353,8.09484629 C9.70698816,8.16142332 9.63734055,8.22477888 9.56462782,8.28506956 C9.55518635,8.29294426 9.54531979,8.30081897 9.53552035,8.3086713 C9.49970094,8.33410748 9.46500019,8.35970026 9.42810687,8.38383891 C9.28914725,8.47699305 9.14269263,8.55842463 8.99026437,8.6274625 C8.78532634,8.70804397 8.57233397,8.76658969 8.35491172,8.80189162 C8.1322989,8.82591841 7.90778436,8.82591841 7.68510442,8.80189162 C7.46774929,8.76667918 7.2547793,8.70813345 7.04990839,8.6274625 C6.90099271,8.56016959 6.75775982,8.48090803 6.62159684,8.39046082 C6.58226485,8.36433112 6.54355931,8.33723946 6.50561445,8.30920821 L6.49364481,8.30064 C6.49042308,8.29757513 6.48735796,8.29451026 6.48491929,8.29258632 C6.40896245,8.23003613 6.33633921,8.16413025 6.2670272,8.09484629 C6.20035522,8.0282469 6.13690497,7.958605 6.07676595,7.88598772 C6.06873399,7.87627857 6.06085864,7.86650231 6.05300567,7.85679316 C6.0275674,7.82095431 6.00212913,7.78609981 5.97785426,7.74938848 C5.884424,7.61052975 5.8026054,7.46424374 5.73313677,7.31200695 Z M14.8613811,8.93130967 C14.7735441,9.5338586 14.6127483,10.123544 14.382372,10.6871892 C14.2427188,11.0095822 14.0806701,11.3217291 13.8973221,11.62146 C13.7982091,11.7829585 13.6929882,11.9406986 13.5816594,12.0946804 C13.5585927,12.12647 13.5352575,12.1583715 13.5116538,12.1898256 L13.4848284,12.2256644 C13.4511792,12.2682146 13.4170825,12.3105188 13.3825607,12.3525545 C13.0841924,11.7315716 12.6809612,11.1666065 12.1907655,10.6825584 C11.5665771,10.0696292 10.8172556,9.59895912 9.99408039,9.30289717 C10.7928689,8.76430782 11.3788664,7.90424271 11.5254329,6.94621362 C11.5582766,6.74634832 11.5761975,6.54431299 11.5791732,6.34183025 C11.576108,5.62447174 11.3604309,4.89521169 10.9404869,4.31015713 C10.5085733,3.70123238 9.90145556,3.23834755 9.19992314,2.9829119 C7.84424462,2.48767816 6.21975274,2.92794559 5.30323674,4.04188035 C4.81758282,4.63243826 4.53127365,5.32760442 4.46844985,6.09033195 C4.40884779,6.81337277 4.59499238,7.56815848 4.97262874,8.18641207 C5.2415316,8.62728353 5.60160504,9.00558242 6.02861894,9.29607392 C5.30569779,9.55605094 4.63781458,9.94920439 4.05978193,10.4552658 C3.45360387,10.9826472 2.97014252,11.6364935 2.6222177,12.3566484 C2.61785494,12.3512346 2.61340268,12.3460892 2.60910703,12.3409214 C2.58131959,12.3067604 2.55371112,12.2725099 2.52643825,12.237991 L2.54679782,12.2649932 L2.5237311,12.2336957 L2.52127006,12.2306532 C2.50677226,12.2127338 2.48151297,12.1782148 2.48545065,12.1817943 C2.37890972,12.0386626 2.27744749,11.8920186 2.18113109,11.7420637 C1.96536445,11.4051741 1.77684831,11.0515284 1.61752913,10.6844823 C1.38793588,10.121978 1.22765465,9.53359014 1.13999666,8.93236112 C1.0640622,8.31426413 1.0640622,7.68918728 1.13999666,7.07109029 C1.22783364,6.46863084 1.38862945,5.87912439 1.61900575,5.31554628 C1.75859182,4.99317567 1.92061816,4.68102875 2.1040556,4.38136502 C2.20316864,4.21953094 2.30838956,4.06179082 2.41971834,3.90816702 C2.44289692,3.87617604 2.46620974,3.84436403 2.48972392,3.812731 L2.51654932,3.77700401 C2.57169913,3.70733974 2.62754251,3.63805579 2.68479539,3.57024834 C2.92398672,3.28763155 3.18364947,3.02302367 3.46181482,2.77868419 C3.52694305,2.721436 3.59301095,2.66532875 3.65995141,2.61045192 C3.69393622,2.58266675 3.72830138,2.55515004 3.76291264,2.52796889 L3.73581876,2.54814782 L3.76754388,2.52421051 L3.77058663,2.52166018 C3.78841803,2.50716357 3.82302929,2.48190636 3.81944958,2.48584371 C3.96259298,2.37931152 4.10915947,2.2779471 4.25921617,2.1816386 C4.59637951,1.96631472 4.95034508,1.77835095 5.31748844,1.61946989 C5.88003886,1.38920197 6.46856451,1.22815089 7.06993235,1.13980658 C7.68816954,1.06385597 8.31329767,1.06385597 8.93144536,1.13980658 C9.53386474,1.22763635 10.1234196,1.38850846 10.6870439,1.61877638 C11.009441,1.75841811 11.321703,1.92043116 11.6213913,2.10378644 C11.7829702,2.20295846 11.9407232,2.30817075 12.0946281,2.41951277 C12.1267112,2.44257759 12.1583468,2.46600036 12.190072,2.48960209 L12.2258019,2.51633581 C12.2954495,2.57139161 12.364493,2.62723041 12.4323284,2.68474705 C12.715125,2.92373978 12.9797546,3.18338123 13.2242036,3.46143428 C13.281188,3.52662428 13.3372999,3.59268677 13.3922707,3.65973359 C13.4201476,3.69371561 13.4475995,3.72814506 13.4749395,3.76248503 C13.4688316,3.7546327 13.4622763,3.74561706 13.4545799,3.73548285 C13.4625447,3.74615397 13.4705767,3.75671323 13.4786982,3.76711589 L13.4810697,3.77035973 C13.4955675,3.78827915 13.5207373,3.82261912 13.5167996,3.81919631 C13.6235195,3.96235033 13.7248923,4.1089048 13.8211192,4.25877023 C14.0364607,4.59599539 14.2245294,4.94990955 14.383334,5.31720176 C14.6131734,5.87972841 14.7738126,6.46802682 14.861739,7.06934533 C14.9389935,7.68735284 14.9389935,8.31260865 14.861739,8.93061616 L14.8613811,8.93130967 Z" id="Fill-3"></path>
                    </g>
                    <path d="M12.6844862,14.0425356 C12.7104048,14.0169335 12.7358888,13.9905984 12.7614913,13.9645775 L12.7698279,13.9562005 C12.7005273,14.024944 12.6749247,14.0521167 12.6698279,14.0562005 L12.6844862,14.0425356 Z M3.01502497,12.6444058 L3.09298309,12.7220077 C3.09539147,12.7248173 3.09889932,12.7274291 3.10136005,12.7301992 C3.0326166,12.6606701 3.00544382,12.6336024 3.00136005,12.6301992 L3.01502497,12.6444058 Z M14.0448247,4.08552268 C14.0192761,4.05964497 13.9929438,4.03408284 13.9674474,4.00816568 L13.95867,4 C14.0272698,4.06934911 14.0543858,4.09463511 14.05867,4.1 L14.0448247,4.08552268 Z" id="Fill-4"></path>
                </g>
            </g>
        </g>
    </g>
</svg>
